<?xml version="1.0" standalone="no"?>
<!DOCTYPE svg PUBLIC "-//W3C//DTD SVG 1.1//EN" "http://www.w3.org/Graphics/SVG/1.1/DTD/svg11.dtd" >
<svg xmlns="http://www.w3.org/2000/svg" xmlns:xlink="http://www.w3.org/1999/xlink" version="1.1">
<metadata>
Created by FontForge 20170731 at Wed Dec 16 22:25:40 1998
 By Aleksey,,,
Copyright 1990-1998 Bitstream Inc.  All rights reserved.
</metadata>
<defs>
<font id="ZurichBT-UltraBlackExtended" horiz-adv-x="1024" >
  <font-face 
    font-family="Zurich UBlkEx BT"
    font-weight="400"
    font-stretch="expanded"
    units-per-em="2048"
    panose-1="2 11 9 7 4 5 2 3 2 4"
    ascent="1556"
    descent="-492"
    x-height="1028"
    cap-height="1475"
    bbox="-342 -485 3166 1937"
    underline-thickness="315"
    underline-position="-727"
    unicode-range="U+0020-F002"
  />
<missing-glyph horiz-adv-x="1229" 
d="M102 -362v1806h1024v-1806h-1024zM217 -248h795v1577h-795v-1577z" />
    <glyph glyph-name=".notdef" horiz-adv-x="1229" 
d="M102 -362v1806h1024v-1806h-1024zM217 -248h795v1577h-795v-1577z" />
    <glyph glyph-name=".null" horiz-adv-x="0" 
 />
    <glyph glyph-name="nonmarkingreturn" horiz-adv-x="821" 
 />
    <glyph glyph-name="space" unicode=" " horiz-adv-x="821" 
 />
    <glyph glyph-name="exclam" unicode="!" horiz-adv-x="872" 
d="M623 451h-373l-82 1024h537zM205 0v358h463v-358h-463z" />
    <glyph glyph-name="quotedbl" unicode="&#x22;" horiz-adv-x="758" 
d="M690 1440v-563h-260v563h260zM326 1440v-563h-258v563h258z" />
    <glyph glyph-name="numbersign" unicode="#" horiz-adv-x="1575" 
d="M946 834h-239l-78 -213h239zM938 1470l-129 -366h227l129 366h289l-129 -366h256l-100 -270h-252l-76 -213h258l-100 -271h-254l-131 -366h-289l131 366h-227l-131 -366h-289l131 366h-258l100 271h254l74 213h-258l98 270h258l129 366h289z" />
    <glyph glyph-name="dollar" unicode="$" horiz-adv-x="1642" 
d="M1526 983h-482v4q0 85 -53.5 124.5t-169.5 39.5q-92 0 -137 -28t-45 -85q0 -85 231 -137l17 -4q254 -58 341.5 -83.5t133.5 -49.5q115 -59 167 -133t52 -180q0 -203 -169.5 -318.5t-493.5 -132.5v-176h-207v176q-329 14 -478 129t-149 354v21l477 -1q-1 -5 -1.5 -11
t-0.5 -19q0 -91 63 -136.5t189 -45.5q121 0 178.5 31t57.5 96q0 47 -27 72t-98 42q-110 29 -295 61.5t-246 57.5q-145 60 -208.5 139t-63.5 197q0 198 156.5 310.5t444.5 121.5l1 168h207v-162q320 -14 464 -114.5t144 -309.5v-18z" />
    <glyph glyph-name="percent" unicode="%" horiz-adv-x="2238" 
d="M1747 -25q-223 0 -330.5 103t-107.5 315q0 204 108 308t320 104q214 0 322 -104t108 -310t-105.5 -311t-314.5 -105zM1729 190q80 0 114.5 44.5t34.5 148.5q0 113 -35.5 163t-113.5 50q-82 0 -118 -48t-36 -157q0 -111 34.5 -156t119.5 -45zM496 836q80 0 114.5 45
t34.5 149q0 113 -34.5 162t-112.5 49q-82 0 -118 -47.5t-36 -155.5q0 -112 34 -157t118 -45zM494 623q-223 0 -330 101.5t-107 313.5q0 205 108 308.5t320 103.5q215 0 322.5 -103t107.5 -309q0 -205 -106.5 -310t-314.5 -105zM395 -25l1153 1475h283l-1151 -1475h-285z" />
    <glyph glyph-name="ampersand" unicode="&#x26;" horiz-adv-x="2009" 
d="M1190 291v352h-238q-213 0 -282.5 -38.5t-69.5 -137.5q0 -95 78.5 -135.5t273.5 -40.5h238zM1663 0h-797q-209 0 -312.5 12.5t-186.5 40.5q-127 44 -199 143t-72 232q0 141 82.5 235.5t243.5 137.5q-130 40 -195 117t-65 190q0 199 145 295t447 96q63 0 143 -4t213 -14
v-272q-81 8 -131.5 12t-83.5 4q-118 0 -174.5 -39.5t-56.5 -122.5q0 -72 54.5 -108.5t162.5 -36.5h309v253h473v-253h328v-275h-328v-643z" />
    <glyph glyph-name="quotesingle" unicode="'" horiz-adv-x="393" 
d="M326 1440v-563h-258v563h258z" />
    <glyph glyph-name="parenleft" unicode="(" horiz-adv-x="954" 
d="M500 -289q-161 241 -241.5 463t-80.5 426q0 210 77.5 427t244.5 470h391q-138 -276 -204 -496t-66 -401q0 -173 67 -394.5t203 -494.5h-391z" />
    <glyph glyph-name="parenright" unicode=")" horiz-adv-x="954" 
d="M453 -289h-392q136 273 203.5 494.5t67.5 394.5q0 181 -66.5 401t-204.5 496h392q166 -253 243.5 -470t77.5 -427q0 -204 -80 -426t-241 -463z" />
    <glyph glyph-name="asterisk" unicode="*" horiz-adv-x="1305" 
d="M588 1020l-15 20l-311 -118v321l313 -135l11 20l-254 205l241 164l66 -328h27l67 328l252 -172l-268 -195l10 -22l313 125v-318l-309 127l-14 -22l264 -195l-260 -172l-55 340l-25 -2l-55 -338l-267 178z" />
    <glyph glyph-name="plus" unicode="+" horiz-adv-x="1706" 
d="M993 1221v-473h459v-273h-459v-475h-280v475h-459v273h459v473h280z" />
    <glyph glyph-name="comma" unicode="," horiz-adv-x="821" 
d="M401 -268h-340l168 575h478z" />
    <glyph glyph-name="hyphen" unicode="-" horiz-adv-x="909" 
d="M840 311h-768v410h768v-410z" />
    <glyph glyph-name="period" unicode="." horiz-adv-x="821" 
d="M633 0h-445v348h445v-348z" />
    <glyph glyph-name="slash" unicode="/" horiz-adv-x="797" 
d="M215 -190h-252l559 1685h250z" />
    <glyph glyph-name="zero" unicode="0" horiz-adv-x="1642" 
d="M825 254q138 0 197 100.5t59 335.5q0 262 -59.5 373t-196.5 111q-139 0 -201.5 -108.5t-62.5 -354.5q0 -254 60 -355.5t204 -101.5zM821 -25q-378 0 -565.5 185t-187.5 557q0 364 189 548.5t562 184.5q379 0 567.5 -183t188.5 -550q0 -372 -188 -557t-566 -185z" />
    <glyph glyph-name="one" unicode="1" horiz-adv-x="1642" 
d="M700 -4v1012q-100 -59 -205 -105t-214 -80v379q124 44 241.5 99.5t229.5 121.5h424v-1427h-476z" />
    <glyph glyph-name="two" unicode="2" horiz-adv-x="1642" 
d="M115 0v313q506 254 696 405.5t190 285.5q0 79 -49.5 122t-140.5 43q-101 0 -159 -51.5t-58 -142.5v-8h-444q0 6 -1.5 18t-1.5 19q0 223 165.5 333.5t500.5 110.5q340 0 510 -101.5t170 -304.5q0 -105 -42.5 -189.5t-141.5 -174.5q-68 -62 -213.5 -152t-401.5 -227h805
v-299h-1384z" />
    <glyph glyph-name="three" unicode="3" horiz-adv-x="1642" 
d="M100 418h467q4 -87 61 -126.5t179 -39.5q99 0 155 44.5t56 123.5q0 97 -71 140.5t-230 43.5q-29 0 -44.5 -0.5t-29.5 -0.5v239q12 0 33 -1t31 -1q142 0 205 39t63 127q0 77 -49.5 119t-139.5 42q-85 0 -134.5 -35.5t-49.5 -97.5v-16h-467v20q0 202 171.5 303t512.5 101
q319 0 484 -100.5t165 -292.5q0 -128 -83 -203t-267 -111q194 -18 296 -104t102 -232q0 -200 -189.5 -312t-533.5 -112q-359 0 -527 99t-168 309q0 6 1 17.5t1 17.5z" />
    <glyph glyph-name="four" unicode="4" horiz-adv-x="1642" 
d="M862 569v527l-432 -527h432zM1335 289v-289h-473v289h-776v346l659 792h590v-858h269v-280h-269z" />
    <glyph glyph-name="five" unicode="5" horiz-adv-x="1642" 
d="M201 575l30 852h1209v-299h-789l-20 -315q72 78 165 116t214 38q237 0 374.5 -124.5t137.5 -338.5q0 -258 -186 -394.5t-537 -136.5q-316 0 -477.5 108.5t-161.5 319.5v13h478q6 -75 58 -118.5t135 -43.5q97 0 148 60t51 175q0 106 -50.5 168t-135.5 62
q-66 0 -114.5 -36.5t-74.5 -105.5h-454z" />
    <glyph glyph-name="six" unicode="6" horiz-adv-x="1642" 
d="M614 475q0 -91 65 -155t157 -64q93 0 158 64t65 155q0 90 -65.5 153.5t-157.5 63.5q-93 0 -157.5 -63.5t-64.5 -153.5zM563 784q66 88 171.5 132.5t246.5 44.5q263 0 417 -120.5t154 -324.5q0 -262 -188.5 -401.5t-546.5 -139.5q-351 0 -535 174t-184 506
q0 400 198 600.5t593 200.5q291 0 451.5 -103.5t160.5 -289.5h-466q-5 71 -53.5 105t-147.5 34q-143 0 -207 -90.5t-64 -294.5v-33z" />
    <glyph glyph-name="seven" unicode="7" horiz-adv-x="1642" 
d="M264 0l707 1096h-856v331h1347v-370l-635 -1057h-563z" />
    <glyph glyph-name="eight" unicode="8" horiz-adv-x="1642" 
d="M506 752q-167 29 -253.5 110t-86.5 207q0 183 167.5 282t479.5 99q334 0 505 -98t171 -289q0 -124 -81.5 -199t-256.5 -112q215 -24 320.5 -109.5t105.5 -236.5q0 -215 -189.5 -323t-566.5 -108q-340 0 -526 109t-186 307q0 152 103 245.5t294 115.5zM641 1010
q0 -74 50 -118t134 -44q91 0 138 43.5t47 126.5q0 70 -51.5 110.5t-141.5 40.5q-79 0 -127.5 -44t-48.5 -115zM602 432q0 -80 65 -128t175 -48q113 0 177 47.5t64 130.5q0 84 -65 131t-180 47q-108 0 -172 -49.5t-64 -130.5z" />
    <glyph glyph-name="nine" unicode="9" horiz-adv-x="1642" 
d="M1090 676q-66 -87 -171 -130.5t-247 -43.5q-265 0 -416.5 118.5t-151.5 325.5q0 242 191 376t539 134q352 0 536 -173t184 -505q0 -400 -198 -601.5t-592 -201.5q-290 0 -451 104.5t-161 291.5h466q5 -73 53 -107.5t146 -34.5q146 0 209.5 92t63.5 308v47zM1038 989
q0 91 -64.5 155t-156.5 64q-93 0 -159 -64t-66 -155q0 -89 66 -153t159 -64t157 63.5t64 153.5z" />
    <glyph glyph-name="colon" unicode=":" horiz-adv-x="872" 
d="M659 680h-446v348h446v-348zM659 0h-446v348h446v-348z" />
    <glyph glyph-name="semicolon" unicode=";" horiz-adv-x="872" 
d="M401 -258h-340l168 577h478zM659 680h-446v348h446v-348z" />
    <glyph glyph-name="less" unicode="&#x3c;" horiz-adv-x="1706" 
d="M1442 938l-801 -328l801 -327v-299l-1178 487v281l1178 487v-301z" />
    <glyph glyph-name="equal" unicode="=" horiz-adv-x="1706" 
d="M1452 512v-272h-1198v272h1198zM1452 983v-272h-1198v272h1198z" />
    <glyph glyph-name="greater" unicode="&#x3e;" horiz-adv-x="1706" 
d="M1442 752v-281l-1178 -487v299l801 327l-801 328v301z" />
    <glyph glyph-name="question" unicode="?" horiz-adv-x="1298" 
d="M313 0v358h465v-358h-465zM334 455q0 8 -1 24.5t-1 24.5q0 111 31.5 177t115.5 128q48 36 138 90q163 98 163 172q0 62 -62.5 93.5t-185.5 31.5q-91 0 -197.5 -19t-223.5 -57v332q135 22 264 32.5t254 10.5q309 0 467.5 -99.5t158.5 -293.5q0 -110 -51.5 -190.5
t-177.5 -161.5q-18 -12 -51 -33q-212 -132 -217 -262h-424z" />
    <glyph glyph-name="at" unicode="@" horiz-adv-x="2048" 
d="M1241 911l49 82h242l-156 -627q-2 -12 -3 -18.5t-1 -11.5q0 -24 12.5 -36.5t34.5 -12.5q128 0 231 142t103 331q0 236 -174.5 381t-462.5 145q-142 0 -266 -35.5t-225 -105.5q-154 -108 -238 -269t-84 -350q0 -294 199.5 -468.5t535.5 -174.5q160 0 307.5 47t278.5 140
l115 -160q-164 -122 -342 -181t-381 -59q-188 0 -355 54.5t-294 156.5q-149 119 -223 279t-74 360q0 176 55.5 332.5t163.5 284.5q149 177 361.5 271.5t461.5 94.5q386 0 626 -206t240 -533q0 -171 -68 -314.5t-196 -242.5q-70 -55 -153.5 -84t-174.5 -29q-109 0 -166.5 38
t-66.5 115q-59 -79 -127.5 -115t-161.5 -36q-171 0 -257.5 88t-86.5 262q0 247 143.5 411.5t356.5 164.5q74 0 130.5 -28t90.5 -83zM1126 494l47 195q-7 67 -42 104.5t-91 37.5q-95 0 -167 -116.5t-72 -274.5q0 -72 30.5 -111.5t86.5 -39.5q72 0 129 55.5t79 149.5z" />
    <glyph glyph-name="A" unicode="A" horiz-adv-x="1843" 
d="M1145 588l-236 536l-250 -536h486zM393 0h-495l764 1475h548l729 -1475h-550l-111 266h-766z" />
    <glyph glyph-name="B" unicode="B" horiz-adv-x="1700" 
d="M612 1176v-308h260q95 0 142 38.5t47 115.5q0 76 -47.5 115t-141.5 39h-260zM612 623v-324h299q106 0 160.5 41t54.5 121t-54 121t-161 41h-299zM133 0v1475h914q163 0 238 -13.5t132 -44.5q77 -42 117.5 -118t40.5 -179q0 -125 -72 -205t-227 -127q187 -44 271.5 -137
t84.5 -252q0 -196 -116.5 -297.5t-344.5 -101.5h-1038z" />
    <glyph glyph-name="C" unicode="C" horiz-adv-x="1888" 
d="M1268 979q-20 107 -90.5 161t-190.5 54q-192 0 -295.5 -121.5t-103.5 -345.5q0 -216 102 -332t291 -116q139 0 221.5 66.5t102.5 195.5h522q-28 -290 -242.5 -428t-640.5 -138q-411 0 -640.5 193t-229.5 539q0 379 237 584.5t676 205.5q381 0 582.5 -130.5t218.5 -387.5
h-520z" />
    <glyph glyph-name="D" unicode="D" horiz-adv-x="1952" 
d="M877 1151h-242v-829h242q257 0 373 97t116 312q0 211 -121.5 315.5t-367.5 104.5zM133 0v1475h844q439 0 670 -192.5t231 -559.5q0 -354 -218 -538.5t-636 -184.5h-891z" />
    <glyph glyph-name="E" unicode="E" horiz-adv-x="1552" 
d="M133 0v1475h1315v-318h-821v-235h759v-314h-759v-286h852v-322h-1346z" />
    <glyph glyph-name="F" unicode="F" horiz-adv-x="1505" 
d="M133 0v1475h1315v-324h-811v-277h749v-323h-749v-551h-504z" />
    <glyph glyph-name="G" unicode="G" horiz-adv-x="1944" 
d="M1325 985q-26 109 -99.5 161t-201.5 52q-200 0 -317 -128.5t-117 -348.5q0 -217 123 -332t356 -115q70 0 145.5 13t159.5 39v217h-381v282h836v-745q-215 -53 -411.5 -79t-379.5 -26q-482 0 -722 182.5t-240 551.5q0 379 256 584.5t733 205.5q369 0 565 -130.5
t207 -383.5h-512z" />
    <glyph glyph-name="H" unicode="H" horiz-adv-x="1948" 
d="M133 0v1475h502v-574h678v574h504v-1475h-504v578h-678v-578h-502z" />
    <glyph glyph-name="I" unicode="I" horiz-adv-x="774" 
d="M135 0v1475h504v-1475h-504z" />
    <glyph glyph-name="J" unicode="J" horiz-adv-x="1591" 
d="M956 600v875h502v-875q0 -321 -184.5 -473t-575.5 -152q-318 0 -477.5 131t-159.5 392v39h484v-17q0 -128 48 -189t148 -61q119 0 167 71.5t48 258.5z" />
    <glyph glyph-name="K" unicode="K" horiz-adv-x="1763" 
d="M133 0v1475h496v-553l518 553h606l-588 -633l682 -842h-624l-594 750v-750h-496z" />
    <glyph glyph-name="L" unicode="L" horiz-adv-x="1425" 
d="M1407 322v-322h-1274v1475h504v-1153h770z" />
    <glyph glyph-name="M" unicode="M" horiz-adv-x="2595" 
d="M133 0v1475h821l379 -914l369 914h762v-1475h-473v1188l-496 -1188h-377l-510 1188v-1188h-475z" />
    <glyph glyph-name="N" unicode="N" horiz-adv-x="2032" 
d="M133 0v1475h625l669 -990v990h474v-1475h-648l-647 993v-993h-473z" />
    <glyph glyph-name="O" unicode="O" horiz-adv-x="1993" 
d="M588 725q0 -225 101.5 -338t303.5 -113q205 0 308.5 111t103.5 330q0 238 -106 362.5t-310 124.5q-190 0 -295.5 -125t-105.5 -352zM969 -25q-438 0 -665.5 196t-227.5 572q0 366 240.5 562t689.5 196q445 0 678 -198t233 -576q0 -370 -240 -561t-708 -191z" />
    <glyph glyph-name="P" unicode="P" horiz-adv-x="1649" 
d="M629 1167v-309h280q99 0 147 38.5t48 117.5q0 76 -49 114.5t-146 38.5h-280zM133 0v1475h905q298 0 433 -106.5t135 -338.5q0 -233 -141.5 -363t-395.5 -130h-440v-537h-496z" />
    <glyph glyph-name="Q" unicode="Q" horiz-adv-x="2048" 
d="M1473 0q-79 0 -243 -13.5t-249 -13.5q-449 0 -677 194.5t-228 575.5q0 365 241 561.5t689 196.5q427 0 653.5 -184.5t226.5 -530.5q0 -182 -62.5 -320.5t-193.5 -246.5q101 47 200 70.5t198 23.5q27 0 40.5 -0.5t24.5 -1.5v-311h-620zM588 725q0 -225 101.5 -339
t303.5 -114q205 0 308.5 111.5t103.5 331.5q0 238 -106 362.5t-310 124.5q-190 0 -295.5 -125t-105.5 -352z" />
    <glyph glyph-name="R" unicode="R" horiz-adv-x="1731" 
d="M627 1176v-295h280q101 0 148 35.5t47 111.5q0 79 -45 113.5t-150 34.5h-280zM133 0v1475h846q265 0 360.5 -17t155.5 -57q67 -45 104 -123.5t37 -175.5q0 -146 -98 -237.5t-270 -104.5q180 -10 257.5 -69.5t92.5 -198.5l27 -245q5 -47 19.5 -111t35.5 -136h-512
q-15 41 -23 89t-12 116l-14 204q-6 99 -44.5 134t-156.5 35h-311v-578h-494z" />
    <glyph glyph-name="S" unicode="S" horiz-adv-x="1692" 
d="M561 487v-4q-4 -28 -4 -41q0 -86 73.5 -128t227.5 -42q117 0 183.5 34.5t66.5 94.5q0 91 -263 148q-31 7 -46 10q-17 4 -49 11q-418 91 -537 198q-58 52 -87.5 123t-29.5 160q0 218 192 332t562 114q365 0 541 -107t176 -329v-17h-461v7q0 76 -70 115.5t-205 39.5
q-105 0 -162 -28t-57 -80q0 -92 302 -157q58 -12 91 -19q215 -48 306 -82.5t157 -81.5q74 -54 114 -136t40 -180q0 -225 -209 -346t-602 -121q-388 0 -561.5 116.5t-173.5 373.5v22h485z" />
    <glyph glyph-name="T" unicode="T" horiz-adv-x="1671" 
d="M584 0v1151h-549v324h1601v-324h-549v-1151h-503z" />
    <glyph glyph-name="U" unicode="U" horiz-adv-x="1907" 
d="M129 1475h489v-840q0 -184 84.5 -272.5t260.5 -88.5q172 0 257 90t85 271v840h475v-834q0 -345 -200.5 -505.5t-633.5 -160.5q-430 0 -623.5 158.5t-193.5 507.5v834z" />
    <glyph glyph-name="V" unicode="V" horiz-adv-x="1778" 
d="M584 0l-639 1475h532l436 -1059l443 1059h479l-649 -1475h-602z" />
    <glyph glyph-name="W" unicode="W" horiz-adv-x="2636" 
d="M406 0l-400 1475h502l229 -938l361 938h514l327 -938l246 938h451l-426 -1475h-520l-363 1004l-389 -1004h-532z" />
    <glyph glyph-name="X" unicode="X" horiz-adv-x="1810" 
d="M-76 0l662 768l-609 707h627l326 -398l323 398h584l-612 -707l665 -768h-628l-383 467l-381 -467h-574z" />
    <glyph glyph-name="Y" unicode="Y" horiz-adv-x="1704" 
d="M623 0v522l-727 953h624l375 -578l381 578h522l-674 -953v-522h-501z" />
    <glyph glyph-name="Z" unicode="Z" horiz-adv-x="1663" 
d="M692 322h897v-322h-1470v406l831 745h-786v324h1397v-392z" />
    <glyph glyph-name="bracketleft" unicode="[" horiz-adv-x="954" 
d="M827 -293h-651v1790h651v-264h-266v-1260h266v-266z" />
    <glyph glyph-name="backslash" unicode="\" horiz-adv-x="797" 
d="M831 -190h-249l-557 1685h249z" />
    <glyph glyph-name="bracketright" unicode="]" horiz-adv-x="954" 
d="M127 -293v266h266v1260h-266v264h651v-1790h-651z" />
    <glyph glyph-name="asciicircum" unicode="^" horiz-adv-x="2048" 
d="M1192 1462l442 -565h-303l-307 309l-309 -309h-303l442 565h338z" />
    <glyph glyph-name="underscore" unicode="_" 
d="M1024 -201v-282h-1024v282h1024z" />
    <glyph glyph-name="grave" unicode="`" 
d="M729 1165h-192l-474 285h398z" />
    <glyph glyph-name="a" unicode="a" horiz-adv-x="1507" 
d="M934 446q-230 0 -313.5 -30t-83.5 -105q0 -51 40.5 -79.5t114.5 -28.5q121 0 181.5 56.5t60.5 170.5v16zM944 152q-68 -89 -176 -132t-262 -43q-219 0 -337 78t-118 221q0 195 203.5 281.5t681.5 90.5q0 3 1 11.5t1 12.5q0 79 -47.5 118t-142.5 39q-86 0 -132 -28.5
t-55 -85.5h-438q3 171 162 254.5t485 83.5q313 0 466 -97.5t153 -296.5v-524q0 -49 4.5 -79t15.5 -56h-440q-13 37 -19 74.5t-6 77.5z" />
    <glyph glyph-name="b" unicode="b" horiz-adv-x="1626" 
d="M1069 510q0 136 -64 214.5t-174 78.5q-118 0 -180.5 -75.5t-62.5 -219.5q0 -136 63 -211.5t176 -75.5q111 0 176.5 78t65.5 211zM117 1475h475v-594q85 87 190 130.5t230 43.5q243 0 390.5 -155t147.5 -411q0 -233 -145.5 -373.5t-386.5 -140.5q-133 0 -241 48.5
t-185 142.5q0 -51 -4 -93t-13 -73h-475q8 29 12.5 72.5t4.5 99.5v1303z" />
    <glyph glyph-name="c" unicode="c" horiz-adv-x="1538" 
d="M1036 621q-12 100 -70.5 154t-154.5 54q-128 0 -196 -84.5t-68 -244.5q0 -142 65.5 -217.5t188.5 -75.5q107 0 171 56.5t64 152.5h445v-4q0 -217 -174 -326t-521 -109q-346 0 -534.5 138.5t-188.5 392.5q0 259 194.5 404t545.5 145q320 0 493.5 -112t184.5 -324h-445z
" />
    <glyph glyph-name="d" unicode="d" horiz-adv-x="1626" 
d="M793 803q-110 0 -174 -79t-64 -216q0 -132 65.5 -209.5t176.5 -77.5t175 76.5t64 210.5q0 144 -62.5 219.5t-180.5 75.5zM1032 166q-82 -97 -188 -144t-240 -47q-240 0 -385 141t-145 373q0 257 147.5 411.5t392.5 154.5q122 0 225.5 -43.5t192.5 -130.5v594h473v-1303
q0 -52 5 -96t13 -76h-474q-9 31 -13 73t-4 93z" />
    <glyph glyph-name="e" unicode="e" horiz-adv-x="1466" 
d="M983 637v14q0 86 -54.5 132t-156.5 46q-106 0 -164.5 -47t-58.5 -133v-12h434zM549 420v-23q0 -101 54 -150.5t165 -49.5q90 0 141 34.5t62 102.5h432q-10 -173 -184 -269t-480 -96q-349 0 -511 129t-162 406q0 268 182 409.5t526 141.5q318 0 475.5 -148t157.5 -446v-41
h-858z" />
    <glyph glyph-name="f" unicode="f" horiz-adv-x="1018" 
d="M258 0v784h-233v244h233v148q0 166 108.5 244.5t335.5 78.5q60 0 132 -6.5t159 -19.5v-222q-29 1 -66.5 2.5t-43.5 1.5q-85 0 -117.5 -29t-32.5 -108v-90h260v-244h-260v-784h-475z" />
    <glyph glyph-name="g" unicode="g" horiz-adv-x="1606" 
d="M791 815q-118 0 -183 -73.5t-65 -206.5q0 -125 65 -198t176 -73q113 0 176.5 72t63.5 201q0 133 -61 205.5t-172 72.5zM1495 117q0 -270 -188 -397.5t-586 -127.5q-313 0 -471 87t-158 260v10h485q2 -69 48.5 -102t144.5 -33q142 0 196 58t54 224v115
q-85 -91 -190.5 -135.5t-235.5 -44.5q-241 0 -387 133.5t-146 353.5q0 243 147.5 390t391.5 147q122 0 223 -38.5t180 -114.5q2 25 6.5 57t12.5 71h487q-7 -46 -10.5 -82.5t-3.5 -56.5v-774z" />
    <glyph glyph-name="h" unicode="h" horiz-adv-x="1591" 
d="M117 0v1475h475v-613q84 95 188.5 143t229.5 48q232 0 352.5 -113t120.5 -330v-610h-475v586q0 106 -47 158.5t-142 52.5q-115 0 -171 -71.5t-56 -217.5v-508h-475z" />
    <glyph glyph-name="i" unicode="i" horiz-adv-x="711" 
d="M117 1174v301h475v-301h-475zM117 0v1028h475v-1028h-475z" />
    <glyph glyph-name="j" unicode="j" horiz-adv-x="711" 
d="M-131 -109h10q43 -4 62 -4q101 0 138.5 46t37.5 184v911h475v-1026q0 -213 -115 -310.5t-368 -97.5q-40 0 -91.5 4t-148.5 15v278zM592 1171h-475v304h475v-304z" />
    <glyph glyph-name="k" unicode="k" horiz-adv-x="1565" 
d="M582 0h-467v1475h467v-865l360 418h559l-403 -457l510 -571h-590l-436 518v-518z" />
    <glyph glyph-name="l" unicode="l" horiz-adv-x="711" 
d="M117 0v1475h475v-1475h-475z" />
    <glyph glyph-name="m" unicode="m" horiz-adv-x="2361" 
d="M115 0v856q0 52 -5 96t-13 76h474q8 -31 12.5 -72.5t4.5 -93.5q71 96 170 143.5t227 47.5q132 0 229.5 -50t163.5 -151q88 104 193 152.5t241 48.5q210 0 323.5 -107t113.5 -305v-641h-469v608q0 93 -43 141t-125 48q-99 0 -147 -71t-48 -218v-508h-469v608
q0 89 -42.5 139t-119.5 50q-99 0 -148.5 -72t-49.5 -217v-508h-473z" />
    <glyph glyph-name="n" unicode="n" horiz-adv-x="1591" 
d="M117 0v856q0 52 -5 96t-13 76h474q9 -24 13 -63.5t4 -102.5q89 97 192 144t228 47q231 0 351 -119t120 -348v-586h-473v571q0 118 -45.5 172t-143.5 54q-115 0 -172 -72t-57 -217v-508h-473z" />
    <glyph glyph-name="o" unicode="o" horiz-adv-x="1624" 
d="M805 203q128 0 200 82t72 229t-72 230t-198 83q-123 0 -192.5 -82t-69.5 -229q0 -149 68 -231t192 -82zM811 -25q-371 0 -560.5 136t-189.5 403q0 263 192 402t558 139q367 0 558.5 -138.5t191.5 -404.5q0 -263 -191.5 -400t-558.5 -137z" />
    <glyph glyph-name="p" unicode="p" horiz-adv-x="1622" 
d="M829 225q111 0 175.5 79t64.5 214q0 133 -65.5 211t-176.5 78q-113 0 -176 -75.5t-63 -211.5q0 -143 62 -219t179 -76zM117 -389v1245q0 56 -4.5 99.5t-12.5 72.5h473q9 -31 13 -72.5t4 -93.5q82 95 189 143t237 48q243 0 388.5 -140.5t145.5 -373.5q0 -256 -147.5 -411
t-390.5 -155q-125 0 -231 44t-191 130v-536h-473z" />
    <glyph glyph-name="q" unicode="q" horiz-adv-x="1624" 
d="M555 520q0 -137 64 -216t174 -79q118 0 180.5 75.5t62.5 219.5q0 134 -64 210.5t-175 76.5t-176.5 -77.5t-65.5 -209.5zM1032 147q-85 -87 -190 -130.5t-230 -43.5q-243 0 -390.5 155t-147.5 411q0 233 146 373.5t388 140.5q129 0 234 -47.5t190 -143.5q0 52 4 93.5
t13 72.5h475q-8 -29 -12.5 -72.5t-4.5 -99.5v-1245h-475v536z" />
    <glyph glyph-name="r" unicode="r" horiz-adv-x="1067" 
d="M119 -2v856q0 56 -4.5 99.5t-12.5 72.5h473q10 -35 14.5 -77t4.5 -89q66 100 156.5 146.5t218.5 46.5q22 0 34 -0.5t23 -2.5v-341q-32 3 -61 4.5t-54 1.5q-177 0 -248 -70t-71 -248v-399h-473z" />
    <glyph glyph-name="s" unicode="s" horiz-adv-x="1366" 
d="M471 358v-10q0 -76 45 -109.5t150 -33.5q82 0 126 23t44 67q0 37 -31.5 57.5t-126.5 38.5q-42 8 -123 22q-262 45 -362 105q-55 33 -85 88t-30 123q0 164 157.5 248t464.5 84q280 0 418 -83.5t139 -252.5h-427q-2 65 -40.5 92t-134.5 27q-58 0 -90.5 -20t-32.5 -56
q0 -35 35.5 -56.5t161.5 -49.5q44 -10 122 -27q213 -45 271 -72q97 -44 141 -101.5t44 -137.5q0 -172 -163.5 -260.5t-481.5 -88.5q-314 0 -459.5 91.5t-145.5 287.5v4h414z" />
    <glyph glyph-name="t" unicode="t" horiz-adv-x="1104" 
d="M268 319v484h-268v250h268v188l469 150v-338h269v-250h-269v-395q0 -83 42 -116.5t147 -33.5q23 0 50 1.5t58 4.5v-248q-97 -20 -182.5 -30.5t-159.5 -10.5q-229 0 -326.5 79t-97.5 265z" />
    <glyph glyph-name="u" unicode="u" horiz-adv-x="1591" 
d="M1468 1030v-858q0 -56 4.5 -99.5t12.5 -72.5h-473q-9 25 -14 68t-5 100q-90 -98 -191.5 -145.5t-221.5 -47.5q-234 0 -356 119.5t-122 349.5v586h476v-571q0 -118 45 -172t143 -54q115 0 171 71.5t56 217.5v508h475z" />
    <glyph glyph-name="v" unicode="v" horiz-adv-x="1425" 
d="M1044 1028h433l-514 -1028h-492l-522 1028h500l286 -670z" />
    <glyph glyph-name="w" unicode="w" horiz-adv-x="2263" 
d="M373 0l-406 1028h479l222 -622l247 622h521l235 -622l225 622h402l-414 -1028h-487l-264 672l-269 -672h-491z" />
    <glyph glyph-name="x" unicode="x" horiz-adv-x="1399" 
d="M-74 0l510 541l-438 487h549l186 -229l191 229h516l-451 -487l481 -541h-538l-246 303l-242 -303h-518z" />
    <glyph glyph-name="y" unicode="y" horiz-adv-x="1386" 
d="M496 -6l-535 1036h498l270 -620l260 620h438l-524 -1089q-20 -45 -53.5 -135t-67.5 -193h-471z" />
    <glyph glyph-name="z" unicode="z" horiz-adv-x="1321" 
d="M627 754h-504v274h1087v-283l-514 -466h551v-279h-1163v260z" />
    <glyph glyph-name="braceleft" unicode="{" 
d="M905 1192q-8 0 -22.5 1t-20.5 1q-87 0 -117 -30t-30 -128v-239q0 -134 -47 -189.5t-170 -77.5q124 -23 170.5 -77.5t46.5 -186.5v-241q0 -96 29.5 -126t115.5 -30q7 0 22 1t23 1v-285h-80q-139 0 -211.5 10.5t-119.5 34.5q-60 30 -84.5 84.5t-24.5 186.5v258
q0 127 -46.5 179t-158.5 52q-5 0 -16.5 -1t-18.5 -1v283q7 0 18.5 -1t16.5 -1q112 0 158.5 52t46.5 179v258q0 133 24.5 188t84.5 85q48 24 120.5 34.5t210.5 10.5h80v-285z" />
    <glyph glyph-name="bar" unicode="|" 
d="M653 1565v-2048h-280v2048h280z" />
    <glyph glyph-name="braceright" unicode="}" 
d="M641 1159v-258q0 -127 46.5 -179t158.5 -52q5 0 16.5 1t18.5 1v-283q-7 0 -18.5 1t-16.5 1q-112 0 -158.5 -52t-46.5 -179v-258q0 -130 -25 -186t-86 -87q-45 -23 -115 -33t-200 -10h-94v283q9 0 23 -1t20 -1q87 0 117 30t30 128v241q0 132 46.5 186.5t170.5 77.5
q-123 22 -170 77t-47 188v241q0 98 -30 128t-117 30q-6 0 -20 -1t-23 -1v285h80q138 0 210 -10.5t119 -34.5q61 -31 86 -87t25 -186z" />
    <glyph glyph-name="asciitilde" unicode="~" horiz-adv-x="1706" 
d="M1530 543q-102 -69 -192 -101t-179 -32q-54 0 -111.5 11.5t-154.5 45.5q-124 42 -194.5 56t-137.5 14q-84 0 -176 -38t-207 -120v299q119 75 216.5 109t191.5 34q58 0 123 -12t155 -41q22 -7 64 -22q152 -54 235 -54q86 0 175 36.5t192 113.5v-299z" />
    <glyph glyph-name="euro" horiz-adv-x="1642" 
d="M641 1001h395l-84 -188h-341q-2 -15 -2.5 -32.5t-0.5 -51.5q0 -6 2 -31.5t2 -38.5h314l-84 -188h-203q26 -107 91 -162t165 -55q92 0 151.5 56.5t77.5 162.5h467q-22 -257 -199.5 -377.5t-531.5 -120.5q-286 0 -466 123.5t-255 372.5h-176l84 188h70q-1 13 -2 33
q-2 34 -2 45q0 31 0.5 47t0.5 29h-155l84 188h107q79 249 265.5 372.5t481.5 123.5q318 0 492.5 -121.5t201.5 -363.5h-467q-17 103 -72.5 156t-146.5 53q-94 0 -159 -54t-105 -166z" />
    <glyph glyph-name="euro" unicode="&#x20ac;" horiz-adv-x="1642" 
d="M641 1001h395l-84 -188h-341q-2 -15 -2.5 -32.5t-0.5 -51.5q0 -6 2 -31.5t2 -38.5h314l-84 -188h-203q26 -107 91 -162t165 -55q92 0 151.5 56.5t77.5 162.5h467q-22 -257 -199.5 -377.5t-531.5 -120.5q-286 0 -466 123.5t-255 372.5h-176l84 188h70q-1 13 -2 33
q-2 34 -2 45q0 31 0.5 47t0.5 29h-155l84 188h107q79 249 265.5 372.5t481.5 123.5q318 0 492.5 -121.5t201.5 -363.5h-467q-17 103 -72.5 156t-146.5 53q-94 0 -159 -54t-105 -166z" />
    <glyph glyph-name="nonbreakingspace" unicode="&#xa0;" horiz-adv-x="1642" 
 />
    <glyph glyph-name="exclamdown" unicode="&#xa1;" horiz-adv-x="872" 
d="M248 1024h375l82 -1024h-537zM668 1475v-359h-465v359h465z" />
    <glyph glyph-name="cent" unicode="&#xa2;" horiz-adv-x="1642" 
d="M1086 416h444v-10q0 -204 -169 -316.5t-478 -112.5q-39 0 -70.5 0.5t-65.5 1.5l-63 -184h-217l76 211q-204 44 -317 173.5t-113 318.5q0 264 189 410.5t534 146.5q11 0 33.5 -1t33.5 -1l51 155h217l-61 -174q199 -40 305 -144.5t115 -268.5h-445q-12 102 -71 155t-160 53
q-125 0 -191.5 -84.5t-66.5 -244.5q0 -143 67 -217t195 -74q109 0 167.5 53.5t60.5 153.5z" />
    <glyph glyph-name="sterling" unicode="&#xa3;" horiz-adv-x="1642" 
d="M838 891h313v-260h-313v-336h712v-295h-1355v295h170v336h-213v260h213v65q0 235 162.5 364.5t457.5 129.5q316 0 472.5 -107t156.5 -323v-29h-447v23q0 80 -40.5 123t-116.5 43q-91 0 -131.5 -51.5t-40.5 -165.5v-72z" />
    <glyph glyph-name="currency" unicode="&#xa4;" horiz-adv-x="1642" 
d="M641 1001h395l-84 -188h-341q-2 -15 -2.5 -32.5t-0.5 -51.5q0 -6 2 -31.5t2 -38.5h314l-84 -188h-203q26 -107 91 -162t165 -55q92 0 151.5 56.5t77.5 162.5h467q-22 -257 -199.5 -377.5t-531.5 -120.5q-286 0 -466 123.5t-255 372.5h-176l84 188h70q-1 13 -2 33
q-2 34 -2 45q0 31 0.5 47t0.5 29h-155l84 188h107q79 249 265.5 372.5t481.5 123.5q318 0 492.5 -121.5t201.5 -363.5h-467q-17 103 -72.5 156t-146.5 53q-94 0 -159 -54t-105 -166z" />
    <glyph glyph-name="yen" unicode="&#xa5;" horiz-adv-x="1722" 
d="M1790 1427l-285 -389h209v-188h-346l-115 -154h461v-190h-598v-506h-473v506h-637v190h486l-121 154h-365v188h213l-303 389h596l389 -581l397 581h492z" />
    <glyph glyph-name="brokenbar" unicode="&#xa6;" 
d="M653 408v-758h-280v758h280zM653 1432v-758h-280v758h280z" />
    <glyph glyph-name="section" unicode="&#xa7;" horiz-adv-x="1305" 
d="M659 610q63 27 98.5 57t35.5 58q0 31 -44 55.5t-139 44.5q-56 -17 -90.5 -48t-34.5 -64q0 -39 42 -63.5t132 -39.5zM143 287q118 -63 225.5 -95t198.5 -32q96 0 149.5 26.5t53.5 73.5q0 58 -187 106q-16 4 -26 7q-271 72 -363 138.5t-92 172.5q0 83 51.5 148.5
t163.5 125.5q-94 48 -142 109t-48 135q0 143 131.5 219t378.5 76q104 0 222 -16.5t243 -48.5v-304q-129 54 -233 80.5t-185 26.5q-63 0 -100 -21t-37 -55q0 -50 162 -95q73 -20 116 -34q205 -62 285 -124.5t80 -153.5q0 -89 -58.5 -152.5t-189.5 -116.5q130 -36 195 -105
t65 -169q0 -147 -154.5 -230t-431.5 -83q-113 0 -231.5 17t-241.5 52v322z" />
    <glyph glyph-name="dieresis" unicode="&#xa8;" 
d="M588 1178v260h327v-260h-327zM109 1178v260h327v-260h-327z" />
    <glyph glyph-name="copyright" unicode="&#xa9;" horiz-adv-x="1706" 
d="M987 883q-3 63 -38 99t-93 36q-73 0 -114.5 -71.5t-41.5 -201.5q0 -131 41 -196.5t123 -65.5q60 0 92 36.5t35 106.5l248 1q-6 -149 -109 -237.5t-272 -88.5q-195 0 -306.5 116t-111.5 320q0 200 111 323.5t289 123.5q176 0 278.5 -79.5t110.5 -221.5h-242zM1452 743
q0 120 -45 229t-129 193q-87 87 -194.5 131.5t-229.5 44.5q-123 0 -230 -43.5t-190 -128.5q-86 -87 -132 -197t-46 -229t45.5 -227.5t130.5 -193.5q86 -86 194 -131.5t228 -45.5q119 0 228.5 46t197.5 133q85 83 128.5 189.5t43.5 229.5zM852 1493q155 0 292.5 -56
t244.5 -163q104 -105 160.5 -243t56.5 -290q0 -154 -55.5 -288.5t-161.5 -237.5q-111 -108 -250 -166.5t-287 -58.5q-149 0 -284 57t-244 166q-108 107 -165 243t-57 285q0 151 57.5 289t166.5 248q103 105 238 160t288 55z" />
    <glyph glyph-name="ordfeminine" unicode="&#xaa;" horiz-adv-x="1130" 
d="M700 1067q-170 0 -233.5 -21.5t-63.5 -74.5q0 -36 31 -56t86 -20q91 0 135.5 40t44.5 120v12zM709 860q-52 -62 -133 -92.5t-197 -30.5q-163 0 -251.5 55t-88.5 156q0 136 153.5 196.5t509.5 61.5q1 4 1.5 9.5t1.5 9.5q0 55 -36.5 82.5t-107.5 27.5q-64 0 -98.5 -20.5
t-40.5 -61.5l-330 1q3 119 123 178t363 59q234 0 349 -68.5t115 -208.5v-366q0 -39 3.5 -58.5t11.5 -35.5h-330q-9 26 -13.5 52t-4.5 54z" />
    <glyph glyph-name="guillemotleft" unicode="&#xab;" horiz-adv-x="1290" 
d="M629 514l241 393h392l-228 -393l228 -393h-392zM61 514l240 393h393l-227 -393l227 -393h-393z" />
    <glyph glyph-name="logicalnot" unicode="&#xac;" horiz-adv-x="1706" 
d="M1452 868v-501h-272v235h-926v266h1198z" />
    <glyph glyph-name="sfthyphen" unicode="&#xad;" horiz-adv-x="909" 
d="M840 311h-768v410h768v-410z" />
    <glyph glyph-name="registered" unicode="&#xae;" horiz-adv-x="1706" 
d="M823 1006h-39v-193h54q58 0 88 25t30 73q0 49 -32 72t-101 23zM862 1165q174 0 265.5 -61t91.5 -178q0 -78 -43 -135t-121 -84l178 -355h-279l-145 312h-25v-312h-256v813h334zM1452 743q0 120 -45 229t-129 193q-87 87 -194.5 131.5t-229.5 44.5q-123 0 -230 -43.5
t-190 -128.5q-86 -87 -132 -197t-46 -229t45.5 -227.5t130.5 -193.5q86 -86 194 -131.5t228 -45.5q119 0 228.5 46t197.5 133q85 83 128.5 189.5t43.5 229.5zM852 1493q155 0 292.5 -56t244.5 -163q104 -105 160.5 -243t56.5 -290q0 -154 -55.5 -288.5t-161.5 -237.5
q-111 -108 -250 -166.5t-287 -58.5q-149 0 -284 57t-244 166q-108 107 -165 243t-57 285q0 151 57.5 289t166.5 248q103 105 238 160t288 55z" />
    <glyph glyph-name="macron" unicode="&#xaf;" 
d="M109 1227v162h806v-162h-806z" />
    <glyph glyph-name="degree" unicode="&#xb0;" horiz-adv-x="674" 
d="M489 1151q0 62 -45 107t-108 45q-62 0 -106 -44.5t-44 -107.5q0 -64 44 -109t108 -45q62 0 106.5 46t44.5 108zM338 1473q134 0 227.5 -94.5t93.5 -229.5q0 -132 -94.5 -227t-228.5 -95t-228 93.5t-94 228.5q0 134 95.5 229t228.5 95z" />
    <glyph glyph-name="plusminus" unicode="&#xb1;" horiz-adv-x="1706" 
d="M1452 231v-272h-1198v272h1198zM993 1262v-310h459v-272h-459v-309h-280v309h-459v272h459v310h280z" />
    <glyph glyph-name="twosuperior" unicode="&#xb2;" horiz-adv-x="1083" 
d="M76 571v189q335 153 460.5 243.5t125.5 170.5q0 48 -33.5 74t-93.5 26q-67 0 -105.5 -31t-38.5 -86v-6h-293v23q0 134 108.5 200t330.5 66q225 0 336.5 -61t111.5 -183q0 -63 -28 -113t-93 -104q-44 -38 -140 -91.5t-265 -135.5h530v-181h-913z" />
    <glyph glyph-name="threesuperior" unicode="&#xb3;" horiz-adv-x="1083" 
d="M66 821h309q2 -51 39.5 -74.5t117.5 -23.5q67 0 103.5 26.5t36.5 73.5q0 58 -47 84.5t-152 26.5q-19 0 -29 -0.5t-20 -1.5v145q8 0 22 -1t21 -1q94 0 135 23.5t41 77.5q0 46 -32.5 71t-92.5 25q-55 0 -88 -22t-33 -58v-10h-307v12q0 121 112.5 181.5t338.5 60.5
q211 0 319.5 -60t108.5 -176q0 -77 -55 -121.5t-177 -66.5q128 -11 195 -62.5t67 -138.5q0 -120 -125 -187t-352 -67q-235 0 -345.5 59t-110.5 185v20z" />
    <glyph glyph-name="acute" unicode="&#xb4;" 
d="M295 1165l268 285h398l-474 -285h-192z" />
    <glyph glyph-name="mu" unicode="&#xb5;" horiz-adv-x="1372" 
d="M602 1087l-84 -614q-2 -22 -3 -33.5t-1 -19.5q0 -68 31.5 -100.5t95.5 -32.5q79 0 124 52t60 161l84 587h418l-158 -1087h-368l18 131q-36 -68 -82.5 -101.5t-105.5 -33.5q-61 0 -105.5 31.5t-70.5 93.5l-72 -543h-412l209 1509h422z" />
    <glyph glyph-name="paragraph" unicode="&#xb6;" 
d="M1014 1337h-101v-1337h-202v1337h-140v-1337h-202v784q-163 8 -261 103t-98 243q0 157 106.5 253t282.5 96h615v-142z" />
    <glyph glyph-name="glyph122" unicode="&#xb7;" horiz-adv-x="821" 
d="M211 713q0 84 58.5 143t142.5 59q83 0 142.5 -59.5t59.5 -142.5q0 -84 -59 -142.5t-143 -58.5q-85 0 -143 58t-58 143z" />
    <glyph glyph-name="cedilla" unicode="&#xb8;" 
d="M150 -438v137q110 -22 205 -33.5t161 -11.5q57 0 86 17t29 50q0 37 -37.5 52.5t-126.5 15.5q-11 0 -34.5 -1t-37.5 -1v213h156v-84h27q149 0 229 -50t80 -142q0 -100 -90 -154.5t-254 -54.5q-77 0 -176 11.5t-217 35.5z" />
    <glyph glyph-name="onesuperior" unicode="&#xb9;" horiz-adv-x="1085" 
d="M461 569v607q-69 -37 -137 -64.5t-140 -46.5v227q83 27 160.5 60t151.5 73h278v-856h-313z" />
    <glyph glyph-name="ordmasculine" unicode="&#xba;" horiz-adv-x="1219" 
d="M604 895q97 0 151 58t54 161q0 102 -54 160.5t-149 58.5q-93 0 -144.5 -57.5t-51.5 -161.5t51 -161.5t143 -57.5zM608 737q-277 0 -419 95.5t-142 281.5q0 185 143.5 282t417.5 97q276 0 419.5 -97.5t143.5 -283.5q0 -184 -143.5 -279.5t-419.5 -95.5z" />
    <glyph glyph-name="guillemotright" unicode="&#xbb;" horiz-adv-x="1290" 
d="M1229 514l-242 -393h-391l227 393l-227 393h391zM659 514l-239 -393h-391l227 393l-227 393h391z" />
    <glyph glyph-name="onequarter" unicode="&#xbc;" horiz-adv-x="2413" 
d="M1919 319v295l-272 -295h272zM2218 162v-162h-299v162h-489v194l415 443h373v-480h168v-157h-168zM692 -25l783 1475h241l-788 -1475h-236zM440 625v567q-63 -34 -129 -60t-135 -45v213q81 26 154.5 56t142.5 67h266v-798h-299z" />
    <glyph glyph-name="onehalf" unicode="&#xbd;" horiz-adv-x="2413" 
d="M1448 0v176q319 142 439 226.5t120 158.5q0 45 -31.5 69.5t-89.5 24.5q-62 0 -98.5 -29t-36.5 -79v-6h-281q0 4 -1 10.5t-1 9.5q0 126 104.5 188t315.5 62q214 0 321 -57t107 -170q0 -60 -26 -107t-88 -98q-47 -36 -142.5 -88t-244.5 -123h505v-168h-872zM692 -25
l783 1475h241l-788 -1475h-236zM440 625v567q-63 -34 -129 -60t-135 -45v213q81 26 154.5 56t142.5 67h266v-798h-299z" />
    <glyph glyph-name="threequarters" unicode="&#xbe;" horiz-adv-x="2413" 
d="M1919 319v295l-272 -295h272zM2218 162v-162h-299v162h-489v194l415 443h373v-480h168v-157h-168zM692 -25l783 1475h241l-788 -1475h-236zM63 860h295q2 -48 37.5 -70t112.5 -22q63 0 98 25t35 69q0 54 -44.5 78.5t-143.5 24.5h-47v133h38q91 0 130.5 21.5t39.5 70.5
q0 43 -31 66.5t-87 23.5q-55 0 -86 -19.5t-31 -54.5v-10h-293v12q0 113 107.5 169.5t322.5 56.5q201 0 305.5 -56t104.5 -164q0 -72 -52.5 -113.5t-168.5 -62.5q122 -10 185.5 -58t63.5 -130q0 -113 -119 -175.5t-335 -62.5q-226 0 -332.5 56t-106.5 174q0 3 1 9t1 9z" />
    <glyph glyph-name="questiondown" unicode="&#xbf;" horiz-adv-x="1298" 
d="M1053 1475v-359h-465v359h465zM1030 1018q0 -10 1 -26.5t1 -24.5q0 -110 -31 -175.5t-114 -127.5q-48 -36 -138 -90q-163 -98 -163 -173q0 -62 62 -93.5t183 -31.5q93 0 200.5 19.5t223.5 56.5v-332q-142 -22 -271 -33.5t-247 -11.5q-309 0 -467.5 99.5t-158.5 294.5
q0 110 51.5 190.5t177.5 161.5q16 10 47 29q216 136 222 268h421z" />
    <glyph glyph-name="Agrave" unicode="&#xc0;" horiz-adv-x="1843" 
d="M1145 588l-236 536l-250 -536h486zM393 0h-495l764 1475h548l729 -1475h-550l-111 266h-766zM1153 1611h-192l-474 285h398z" />
    <glyph glyph-name="Aacute" unicode="&#xc1;" horiz-adv-x="1843" 
d="M1145 588l-236 536l-250 -536h486zM393 0h-495l764 1475h548l729 -1475h-550l-111 266h-766zM719 1611l268 285h398l-474 -285h-192z" />
    <glyph glyph-name="Acircumflex" unicode="&#xc2;" horiz-adv-x="1843" 
d="M1145 588l-236 536l-250 -536h486zM393 0h-495l764 1475h548l729 -1475h-550l-111 266h-766zM508 1611l268 285h320l268 -285h-192l-236 150l-236 -150h-192z" />
    <glyph glyph-name="Atilde" unicode="&#xc3;" horiz-adv-x="1843" 
d="M1145 588l-236 536l-250 -536h486zM393 0h-495l764 1475h548l729 -1475h-550l-111 266h-766zM639 1624h-137q32 116 100.5 173.5t175.5 57.5q20 0 43.5 -2.5t50.5 -7.5l172 -33q18 -3 35.5 -4.5t36.5 -1.5q45 0 74.5 20t42.5 58h137q-26 -114 -101 -176t-186 -62
q-22 0 -42 2t-39 6l-184 35q-15 3 -27.5 4.5t-26.5 1.5q-49 0 -81 -18t-44 -53z" />
    <glyph glyph-name="Adieresis" unicode="&#xc4;" horiz-adv-x="1843" 
d="M1145 588l-236 536l-250 -536h486zM393 0h-495l764 1475h548l729 -1475h-550l-111 266h-766zM1012 1624v260h327v-260h-327zM533 1624v260h327v-260h-327z" />
    <glyph glyph-name="Aring" unicode="&#xc5;" horiz-adv-x="1843" 
d="M1085 1739q0 57 -33 83.5t-104 26.5q-70 0 -103.5 -26.5t-33.5 -83.5t33.5 -84t103.5 -27q71 0 104 27t33 84zM1274 1739q0 -97 -84 -148t-242 -51q-157 0 -241 51.5t-84 147.5t84 147t241 51q158 0 242 -51t84 -147zM393 0h-495l764 1475h548l729 -1475h-550l-111 266
h-766zM1145 588l-236 536l-250 -536h486z" />
    <glyph glyph-name="AE" unicode="&#xc6;" horiz-adv-x="2761" 
d="M1333 606l-127 545l-407 -545h534zM1485 0l-80 324h-817l-240 -324h-495l1099 1475h1708v-314h-995l68 -248h882v-307h-805l70 -284h797v-322h-1192z" />
    <glyph glyph-name="Ccedilla" unicode="&#xc7;" horiz-adv-x="1888" 
d="M1268 979q-20 107 -90.5 161t-190.5 54q-192 0 -295.5 -121.5t-103.5 -345.5q0 -216 102 -332t291 -116q139 0 221.5 66.5t102.5 195.5h522q-28 -290 -242.5 -428t-640.5 -138q-411 0 -640.5 193t-229.5 539q0 379 237 584.5t676 205.5q381 0 582.5 -130.5t218.5 -387.5
h-520zM582 -438v137q110 -22 205 -33.5t161 -11.5q57 0 86 17t29 50q0 37 -37.5 52.5t-126.5 15.5q-11 0 -34.5 -1t-37.5 -1v213h156v-84h27q149 0 229 -50t80 -142q0 -100 -90 -154.5t-254 -54.5q-77 0 -176 11.5t-217 35.5z" />
    <glyph glyph-name="Egrave" unicode="&#xc8;" horiz-adv-x="1552" 
d="M133 0v1475h1315v-318h-821v-235h759v-314h-759v-286h852v-322h-1346zM1036 1611h-192l-474 285h398z" />
    <glyph glyph-name="Eacute" unicode="&#xc9;" horiz-adv-x="1552" 
d="M133 0v1475h1315v-318h-821v-235h759v-314h-759v-286h852v-322h-1346zM602 1611l268 285h398l-474 -285h-192z" />
    <glyph glyph-name="Ecircumflex" unicode="&#xca;" horiz-adv-x="1552" 
d="M133 0v1475h1315v-318h-821v-235h759v-314h-759v-286h852v-322h-1346zM391 1611l268 285h320l268 -285h-192l-236 150l-236 -150h-192z" />
    <glyph glyph-name="Edieresis" unicode="&#xcb;" horiz-adv-x="1552" 
d="M133 0v1475h1315v-318h-821v-235h759v-314h-759v-286h852v-322h-1346zM895 1624v260h327v-260h-327zM416 1624v260h327v-260h-327z" />
    <glyph glyph-name="Igrave" unicode="&#xcc;" horiz-adv-x="774" 
d="M135 0v1475h504v-1475h-504zM604 1611h-192l-474 285h398z" />
    <glyph glyph-name="Iacute" unicode="&#xcd;" horiz-adv-x="774" 
d="M135 0v1475h504v-1475h-504zM170 1611l268 285h398l-474 -285h-192z" />
    <glyph glyph-name="Icircumflex" unicode="&#xce;" horiz-adv-x="774" 
d="M135 0v1475h504v-1475h-504zM-41 1611l268 285h320l268 -285h-192l-236 150l-236 -150h-192z" />
    <glyph glyph-name="Idieresis" unicode="&#xcf;" horiz-adv-x="774" 
d="M135 0v1475h504v-1475h-504zM463 1624v260h327v-260h-327zM-16 1624v260h327v-260h-327z" />
    <glyph glyph-name="Eth" unicode="&#xd0;" horiz-adv-x="1962" 
d="M887 1151h-242v-281h330v-256h-330v-292h242q257 0 372 97t115 312q0 212 -120.5 316t-366.5 104zM141 0v614h-131v256h131v605h846q439 0 669 -192.5t230 -559.5q0 -355 -217 -539t-635 -184h-893z" />
    <glyph glyph-name="Ntilde" unicode="&#xd1;" horiz-adv-x="2032" 
d="M133 0v1475h625l669 -990v990h474v-1475h-648l-647 993v-993h-473zM719 1624h-137q32 116 100.5 173.5t175.5 57.5q20 0 43.5 -2.5t50.5 -7.5l172 -33q18 -3 35.5 -4.5t36.5 -1.5q45 0 74.5 20t42.5 58h137q-26 -114 -101 -176t-186 -62q-22 0 -42 2t-39 6l-184 35
q-15 3 -27.5 4.5t-26.5 1.5q-49 0 -81 -18t-44 -53z" />
    <glyph glyph-name="Ograve" unicode="&#xd2;" horiz-adv-x="1993" 
d="M588 725q0 -225 101.5 -338t303.5 -113q205 0 308.5 111t103.5 330q0 238 -106 362.5t-310 124.5q-190 0 -295.5 -125t-105.5 -352zM969 -25q-438 0 -665.5 196t-227.5 572q0 366 240.5 562t689.5 196q445 0 678 -198t233 -576q0 -370 -240 -561t-708 -191zM1214 1611
h-192l-474 285h398z" />
    <glyph glyph-name="Oacute" unicode="&#xd3;" horiz-adv-x="1993" 
d="M588 725q0 -225 101.5 -338t303.5 -113q205 0 308.5 111t103.5 330q0 238 -106 362.5t-310 124.5q-190 0 -295.5 -125t-105.5 -352zM969 -25q-438 0 -665.5 196t-227.5 572q0 366 240.5 562t689.5 196q445 0 678 -198t233 -576q0 -370 -240 -561t-708 -191zM780 1611
l268 285h398l-474 -285h-192z" />
    <glyph glyph-name="Ocircumflex" unicode="&#xd4;" horiz-adv-x="1993" 
d="M588 725q0 -225 101.5 -338t303.5 -113q205 0 308.5 111t103.5 330q0 238 -106 362.5t-310 124.5q-190 0 -295.5 -125t-105.5 -352zM969 -25q-438 0 -665.5 196t-227.5 572q0 366 240.5 562t689.5 196q445 0 678 -198t233 -576q0 -370 -240 -561t-708 -191zM569 1611
l268 285h320l268 -285h-192l-236 150l-236 -150h-192z" />
    <glyph glyph-name="Otilde" unicode="&#xd5;" horiz-adv-x="1993" 
d="M588 725q0 -225 101.5 -338t303.5 -113q205 0 308.5 111t103.5 330q0 238 -106 362.5t-310 124.5q-190 0 -295.5 -125t-105.5 -352zM969 -25q-438 0 -665.5 196t-227.5 572q0 366 240.5 562t689.5 196q445 0 678 -198t233 -576q0 -370 -240 -561t-708 -191zM700 1624
h-137q32 116 100.5 173.5t175.5 57.5q20 0 43.5 -2.5t50.5 -7.5l172 -33q18 -3 35.5 -4.5t36.5 -1.5q45 0 74.5 20t42.5 58h137q-26 -114 -101 -176t-186 -62q-22 0 -42 2t-39 6l-184 35q-15 3 -27.5 4.5t-26.5 1.5q-49 0 -81 -18t-44 -53z" />
    <glyph glyph-name="Odieresis" unicode="&#xd6;" horiz-adv-x="1993" 
d="M588 725q0 -225 101.5 -338t303.5 -113q205 0 308.5 111t103.5 330q0 238 -106 362.5t-310 124.5q-190 0 -295.5 -125t-105.5 -352zM969 -25q-438 0 -665.5 196t-227.5 572q0 366 240.5 562t689.5 196q445 0 678 -198t233 -576q0 -370 -240 -561t-708 -191zM1073 1624
v260h327v-260h-327zM594 1624v260h327v-260h-327z" />
    <glyph glyph-name="multiply" unicode="&#xd7;" horiz-adv-x="1706" 
d="M874 805l426 426l195 -195l-426 -426l426 -426l-195 -194l-426 426l-425 -426l-195 194l426 426l-426 426l195 195z" />
    <glyph glyph-name="Oslash" unicode="&#xd8;" horiz-adv-x="1993" 
d="M203 -4l135 145q-128 92 -195 247.5t-67 359.5q0 364 243 558.5t699 194.5q133 0 250 -20.5t223 -63.5l149 166l125 -106l-125 -140q139 -100 208 -252t69 -358q0 -372 -241.5 -563t-710.5 -191q-141 0 -259.5 20.5t-218.5 61.5l-157 -174zM621 451l626 698
q-46 35 -111.5 53.5t-144.5 18.5q-199 0 -309.5 -130.5t-110.5 -365.5q0 -75 12.5 -143t37.5 -131zM1358 1022l-629 -696q42 -35 109.5 -53.5t156.5 -18.5q212 0 319 116t107 347q0 100 -15.5 174.5t-47.5 130.5z" />
    <glyph glyph-name="Ugrave" unicode="&#xd9;" horiz-adv-x="1907" 
d="M129 1475h489v-840q0 -184 84.5 -272.5t260.5 -88.5q172 0 257 90t85 271v840h475v-834q0 -345 -200.5 -505.5t-633.5 -160.5q-430 0 -623.5 158.5t-193.5 507.5v834zM1171 1611h-192l-474 285h398z" />
    <glyph glyph-name="Uacute" unicode="&#xda;" horiz-adv-x="1907" 
d="M129 1475h489v-840q0 -184 84.5 -272.5t260.5 -88.5q172 0 257 90t85 271v840h475v-834q0 -345 -200.5 -505.5t-633.5 -160.5q-430 0 -623.5 158.5t-193.5 507.5v834zM737 1611l268 285h398l-474 -285h-192z" />
    <glyph glyph-name="Ucircumflex" unicode="&#xdb;" horiz-adv-x="1907" 
d="M129 1475h489v-840q0 -184 84.5 -272.5t260.5 -88.5q172 0 257 90t85 271v840h475v-834q0 -345 -200.5 -505.5t-633.5 -160.5q-430 0 -623.5 158.5t-193.5 507.5v834zM526 1611l268 285h320l268 -285h-192l-236 150l-236 -150h-192z" />
    <glyph glyph-name="Udieresis" unicode="&#xdc;" horiz-adv-x="1907" 
d="M129 1475h489v-840q0 -184 84.5 -272.5t260.5 -88.5q172 0 257 90t85 271v840h475v-834q0 -345 -200.5 -505.5t-633.5 -160.5q-430 0 -623.5 158.5t-193.5 507.5v834zM1030 1624v260h327v-260h-327zM551 1624v260h327v-260h-327z" />
    <glyph glyph-name="Yacute" unicode="&#xdd;" horiz-adv-x="1704" 
d="M623 0v522l-727 953h624l375 -578l381 578h522l-674 -953v-522h-501zM635 1611l268 285h398l-474 -285h-192z" />
    <glyph glyph-name="Thorn" unicode="&#xde;" horiz-adv-x="1649" 
d="M909 915h-280v-307h280q99 0 147 38t48 116q0 76 -49.5 114.5t-145.5 38.5zM133 1475h496v-252h409q298 0 433 -106.5t135 -338.5q0 -233 -141.5 -363t-395.5 -130h-440v-285h-496v1475z" />
    <glyph glyph-name="germandbls" unicode="&#xdf;" horiz-adv-x="1692" 
d="M117 0v979q0 142 16.5 208.5t56.5 112.5q84 98 231.5 149.5t342.5 51.5q296 0 463.5 -93t167.5 -255q0 -79 -35.5 -129.5t-125.5 -98.5q-12 -6 -37 -19q-103 -52 -103 -95q0 -40 140 -95q54 -21 85 -34q185 -77 250 -155.5t65 -204.5q0 -174 -123.5 -264.5t-361.5 -90.5
q-254 0 -367.5 76.5t-113.5 245.5v26h391v-8q0 -42 25.5 -65t72.5 -23q42 0 66 24.5t24 65.5q0 69 -193 128q-57 17 -89 28q-142 47 -215.5 126t-73.5 183q0 66 26 112.5t91 90.5q14 10 38 25q97 62 97 131q0 63 -47.5 103t-122.5 40q-96 0 -141.5 -49t-45.5 -152v-1075
h-454z" />
    <glyph glyph-name="agrave" unicode="&#xe0;" horiz-adv-x="1507" 
d="M934 446q-230 0 -313.5 -30t-83.5 -105q0 -51 40.5 -79.5t114.5 -28.5q121 0 181.5 56.5t60.5 170.5v16zM944 152q-68 -89 -176 -132t-262 -43q-219 0 -337 78t-118 221q0 195 203.5 281.5t681.5 90.5q0 3 1 11.5t1 12.5q0 79 -47.5 118t-142.5 39q-86 0 -132 -28.5
t-55 -85.5h-438q3 171 162 254.5t485 83.5q313 0 466 -97.5t153 -296.5v-524q0 -49 4.5 -79t15.5 -56h-440q-13 37 -19 74.5t-6 77.5zM971 1165h-192l-474 285h398z" />
    <glyph glyph-name="aacute" unicode="&#xe1;" horiz-adv-x="1507" 
d="M934 446q-230 0 -313.5 -30t-83.5 -105q0 -51 40.5 -79.5t114.5 -28.5q121 0 181.5 56.5t60.5 170.5v16zM944 152q-68 -89 -176 -132t-262 -43q-219 0 -337 78t-118 221q0 195 203.5 281.5t681.5 90.5q0 3 1 11.5t1 12.5q0 79 -47.5 118t-142.5 39q-86 0 -132 -28.5
t-55 -85.5h-438q3 171 162 254.5t485 83.5q313 0 466 -97.5t153 -296.5v-524q0 -49 4.5 -79t15.5 -56h-440q-13 37 -19 74.5t-6 77.5zM537 1165l268 285h398l-474 -285h-192z" />
    <glyph glyph-name="acircumflex" unicode="&#xe2;" horiz-adv-x="1507" 
d="M934 446q-230 0 -313.5 -30t-83.5 -105q0 -51 40.5 -79.5t114.5 -28.5q121 0 181.5 56.5t60.5 170.5v16zM944 152q-68 -89 -176 -132t-262 -43q-219 0 -337 78t-118 221q0 195 203.5 281.5t681.5 90.5q0 3 1 11.5t1 12.5q0 79 -47.5 118t-142.5 39q-86 0 -132 -28.5
t-55 -85.5h-438q3 171 162 254.5t485 83.5q313 0 466 -97.5t153 -296.5v-524q0 -49 4.5 -79t15.5 -56h-440q-13 37 -19 74.5t-6 77.5zM326 1165l268 285h320l268 -285h-192l-236 150l-236 -150h-192z" />
    <glyph glyph-name="atilde" unicode="&#xe3;" horiz-adv-x="1507" 
d="M934 446q-230 0 -313.5 -30t-83.5 -105q0 -51 40.5 -79.5t114.5 -28.5q121 0 181.5 56.5t60.5 170.5v16zM944 152q-68 -89 -176 -132t-262 -43q-219 0 -337 78t-118 221q0 195 203.5 281.5t681.5 90.5q0 3 1 11.5t1 12.5q0 79 -47.5 118t-142.5 39q-86 0 -132 -28.5
t-55 -85.5h-438q3 171 162 254.5t485 83.5q313 0 466 -97.5t153 -296.5v-524q0 -49 4.5 -79t15.5 -56h-440q-13 37 -19 74.5t-6 77.5zM457 1178h-137q32 116 100.5 173.5t175.5 57.5q20 0 43.5 -2.5t50.5 -7.5l172 -33q18 -3 35.5 -4.5t36.5 -1.5q45 0 74.5 20t42.5 58h137
q-26 -114 -101 -176t-186 -62q-22 0 -42 2t-39 6l-184 35q-15 3 -27.5 4.5t-26.5 1.5q-49 0 -81 -18t-44 -53z" />
    <glyph glyph-name="adieresis" unicode="&#xe4;" horiz-adv-x="1507" 
d="M934 446q-230 0 -313.5 -30t-83.5 -105q0 -51 40.5 -79.5t114.5 -28.5q121 0 181.5 56.5t60.5 170.5v16zM944 152q-68 -89 -176 -132t-262 -43q-219 0 -337 78t-118 221q0 195 203.5 281.5t681.5 90.5q0 3 1 11.5t1 12.5q0 79 -47.5 118t-142.5 39q-86 0 -132 -28.5
t-55 -85.5h-438q3 171 162 254.5t485 83.5q313 0 466 -97.5t153 -296.5v-524q0 -49 4.5 -79t15.5 -56h-440q-13 37 -19 74.5t-6 77.5zM830 1178v260h327v-260h-327zM351 1178v260h327v-260h-327z" />
    <glyph glyph-name="aring" unicode="&#xe5;" horiz-adv-x="1507" 
d="M915 1317q0 56 -34 83t-105 27q-70 0 -103.5 -26.5t-33.5 -83.5t33.5 -84t103.5 -27q71 0 105 27t34 84zM1102 1317q0 -96 -84 -147.5t-242 -51.5q-157 0 -241 51.5t-84 147.5t84 147.5t241 51.5q158 0 242 -51.5t84 -147.5zM944 152q-68 -89 -176 -132t-262 -43
q-219 0 -337 78t-118 221q0 195 203.5 281.5t681.5 90.5q0 3 1 11.5t1 12.5q0 79 -47.5 118t-142.5 39q-86 0 -132 -28.5t-55 -85.5h-438q3 171 162 254.5t485 83.5q313 0 466 -97.5t153 -296.5v-524q0 -49 4.5 -79t15.5 -56h-440q-13 37 -19 74.5t-6 77.5zM934 446
q-230 0 -313.5 -30t-83.5 -105q0 -51 40.5 -79.5t114.5 -28.5q121 0 181.5 56.5t60.5 170.5v16z" />
    <glyph glyph-name="ae" unicode="&#xe6;" horiz-adv-x="2337" 
d="M1843 649v15q0 85 -54.5 131.5t-156.5 46.5q-106 0 -164.5 -47.5t-58.5 -132.5v-13h434zM926 446q-231 0 -315.5 -30t-84.5 -105q0 -51 42 -79.5t116 -28.5q121 0 181.5 56.5t60.5 170.5v16zM1094 111q-146 -67 -293 -101.5t-287 -34.5q-232 0 -352.5 77t-120.5 224
q0 195 203.5 281.5t680.5 89.5q1 4 2 13.5t1 13.5q0 77 -46 115t-139 38q-92 0 -137 -26.5t-55 -85.5h-436q17 172 177.5 256t471.5 84q143 0 251.5 -24.5t201.5 -76.5q95 52 200 76.5t232 24.5q309 0 464.5 -141.5t155.5 -421.5q0 -26 -0.5 -39.5t-1.5 -24.5h-858v-22
q0 -102 54.5 -152.5t164.5 -50.5q89 0 140.5 35t62.5 104h432q-11 -174 -187.5 -270.5t-486.5 -96.5q-174 0 -297 33.5t-198 102.5z" />
    <glyph glyph-name="ccedilla" unicode="&#xe7;" horiz-adv-x="1538" 
d="M1036 621q-12 100 -70.5 154t-154.5 54q-128 0 -196 -84.5t-68 -244.5q0 -142 65.5 -217.5t188.5 -75.5q107 0 171 56.5t64 152.5h445v-4q0 -217 -174 -326t-521 -109q-346 0 -534.5 138.5t-188.5 392.5q0 259 194.5 404t545.5 145q320 0 493.5 -112t184.5 -324h-445z
M408 -438v137q110 -22 205 -33.5t161 -11.5q57 0 86 17t29 50q0 37 -37.5 52.5t-126.5 15.5q-11 0 -34.5 -1t-37.5 -1v213h156v-84h27q149 0 229 -50t80 -142q0 -100 -90 -154.5t-254 -54.5q-77 0 -176 11.5t-217 35.5z" />
    <glyph glyph-name="egrave" unicode="&#xe8;" horiz-adv-x="1466" 
d="M983 637v14q0 86 -54.5 132t-156.5 46q-106 0 -164.5 -47t-58.5 -133v-12h434zM549 420v-23q0 -101 54 -150.5t165 -49.5q90 0 141 34.5t62 102.5h432q-10 -173 -184 -269t-480 -96q-349 0 -511 129t-162 406q0 268 182 409.5t526 141.5q318 0 475.5 -148t157.5 -446v-41
h-858zM981 1165h-192l-474 285h398z" />
    <glyph glyph-name="eacute" unicode="&#xe9;" horiz-adv-x="1466" 
d="M983 637v14q0 86 -54.5 132t-156.5 46q-106 0 -164.5 -47t-58.5 -133v-12h434zM549 420v-23q0 -101 54 -150.5t165 -49.5q90 0 141 34.5t62 102.5h432q-10 -173 -184 -269t-480 -96q-349 0 -511 129t-162 406q0 268 182 409.5t526 141.5q318 0 475.5 -148t157.5 -446v-41
h-858zM547 1165l268 285h398l-474 -285h-192z" />
    <glyph glyph-name="ecircumflex" unicode="&#xea;" horiz-adv-x="1466" 
d="M983 637v14q0 86 -54.5 132t-156.5 46q-106 0 -164.5 -47t-58.5 -133v-12h434zM549 420v-23q0 -101 54 -150.5t165 -49.5q90 0 141 34.5t62 102.5h432q-10 -173 -184 -269t-480 -96q-349 0 -511 129t-162 406q0 268 182 409.5t526 141.5q318 0 475.5 -148t157.5 -446v-41
h-858zM336 1165l268 285h320l268 -285h-192l-236 150l-236 -150h-192z" />
    <glyph glyph-name="edieresis" unicode="&#xeb;" horiz-adv-x="1466" 
d="M983 637v14q0 86 -54.5 132t-156.5 46q-106 0 -164.5 -47t-58.5 -133v-12h434zM549 420v-23q0 -101 54 -150.5t165 -49.5q90 0 141 34.5t62 102.5h432q-10 -173 -184 -269t-480 -96q-349 0 -511 129t-162 406q0 268 182 409.5t526 141.5q318 0 475.5 -148t157.5 -446v-41
h-858zM840 1178v260h327v-260h-327zM361 1178v260h327v-260h-327z" />
    <glyph glyph-name="igrave" unicode="&#xec;" horiz-adv-x="711" 
d="M117 0v1028h475v-1028h-475zM573 1165h-192l-474 285h398z" />
    <glyph glyph-name="iacute" unicode="&#xed;" horiz-adv-x="711" 
d="M117 0v1028h475v-1028h-475zM139 1165l268 285h398l-474 -285h-192z" />
    <glyph glyph-name="icircumflex" unicode="&#xee;" horiz-adv-x="711" 
d="M117 0v1028h475v-1028h-475zM-72 1165l268 285h320l268 -285h-192l-236 150l-236 -150h-192z" />
    <glyph glyph-name="idieresis" unicode="&#xef;" horiz-adv-x="711" 
d="M117 0v1028h475v-1028h-475zM432 1178v260h327v-260h-327zM-47 1178v260h327v-260h-327z" />
    <glyph glyph-name="eth" unicode="&#xf0;" horiz-adv-x="1624" 
d="M1468 1427l41 -149l-274 -70q163 -163 244.5 -338.5t81.5 -365.5q0 -266 -187 -396.5t-565 -130.5q-372 0 -560 126t-188 376q0 242 183 375t516 133q48 0 97.5 -5.5t100.5 -16.5q-29 42 -57.5 77t-58.5 66l-428 -102l-41 149l332 82l-140 104l154 195q92 -41 184.5 -92
t186.5 -113zM803 203q131 0 202.5 72.5t71.5 205.5q0 128 -71 202.5t-195 74.5q-127 0 -196.5 -72.5t-69.5 -204.5q0 -133 67 -205.5t191 -72.5z" />
    <glyph glyph-name="ntilde" unicode="&#xf1;" horiz-adv-x="1591" 
d="M117 0v856q0 52 -5 96t-13 76h474q9 -24 13 -63.5t4 -102.5q89 97 192 144t228 47q231 0 351 -119t120 -348v-586h-473v571q0 118 -45.5 172t-143.5 54q-115 0 -172 -72t-57 -217v-508h-473zM518 1178h-137q32 116 100.5 173.5t175.5 57.5q20 0 43.5 -2.5t50.5 -7.5
l172 -33q18 -3 35.5 -4.5t36.5 -1.5q45 0 74.5 20t42.5 58h137q-26 -114 -101 -176t-186 -62q-22 0 -42 2t-39 6l-184 35q-15 3 -27.5 4.5t-26.5 1.5q-49 0 -81 -18t-44 -53z" />
    <glyph glyph-name="ograve" unicode="&#xf2;" horiz-adv-x="1624" 
d="M805 203q128 0 200 82t72 229t-72 230t-198 83q-123 0 -192.5 -82t-69.5 -229q0 -149 68 -231t192 -82zM811 -25q-371 0 -560.5 136t-189.5 403q0 263 192 402t558 139q367 0 558.5 -138.5t191.5 -404.5q0 -263 -191.5 -400t-558.5 -137zM1030 1165h-192l-474 285h398z
" />
    <glyph glyph-name="oacute" unicode="&#xf3;" horiz-adv-x="1624" 
d="M805 203q128 0 200 82t72 229t-72 230t-198 83q-123 0 -192.5 -82t-69.5 -229q0 -149 68 -231t192 -82zM811 -25q-371 0 -560.5 136t-189.5 403q0 263 192 402t558 139q367 0 558.5 -138.5t191.5 -404.5q0 -263 -191.5 -400t-558.5 -137zM596 1165l268 285h398l-474 -285
h-192z" />
    <glyph glyph-name="ocircumflex" unicode="&#xf4;" horiz-adv-x="1624" 
d="M805 203q128 0 200 82t72 229t-72 230t-198 83q-123 0 -192.5 -82t-69.5 -229q0 -149 68 -231t192 -82zM811 -25q-371 0 -560.5 136t-189.5 403q0 263 192 402t558 139q367 0 558.5 -138.5t191.5 -404.5q0 -263 -191.5 -400t-558.5 -137zM385 1165l268 285h320l268 -285
h-192l-236 150l-236 -150h-192z" />
    <glyph glyph-name="otilde" unicode="&#xf5;" horiz-adv-x="1624" 
d="M805 203q128 0 200 82t72 229t-72 230t-198 83q-123 0 -192.5 -82t-69.5 -229q0 -149 68 -231t192 -82zM811 -25q-371 0 -560.5 136t-189.5 403q0 263 192 402t558 139q367 0 558.5 -138.5t191.5 -404.5q0 -263 -191.5 -400t-558.5 -137zM516 1178h-137
q32 116 100.5 173.5t175.5 57.5q20 0 43.5 -2.5t50.5 -7.5l172 -33q18 -3 35.5 -4.5t36.5 -1.5q45 0 74.5 20t42.5 58h137q-26 -114 -101 -176t-186 -62q-22 0 -42 2t-39 6l-184 35q-15 3 -27.5 4.5t-26.5 1.5q-49 0 -81 -18t-44 -53z" />
    <glyph glyph-name="odieresis" unicode="&#xf6;" horiz-adv-x="1624" 
d="M805 203q128 0 200 82t72 229t-72 230t-198 83q-123 0 -192.5 -82t-69.5 -229q0 -149 68 -231t192 -82zM811 -25q-371 0 -560.5 136t-189.5 403q0 263 192 402t558 139q367 0 558.5 -138.5t191.5 -404.5q0 -263 -191.5 -400t-558.5 -137zM889 1178v260h327v-260h-327z
M410 1178v260h327v-260h-327z" />
    <glyph glyph-name="divide" unicode="&#xf7;" horiz-adv-x="1706" 
d="M854 371q74 0 128 -54t54 -129q0 -74 -54 -128t-130 -54t-129 53t-53 129q0 77 53.5 130t130.5 53zM1452 748v-273h-1198v273h1198zM854 1217q74 0 128 -55t54 -130q0 -74 -54 -128t-130 -54t-129 53t-53 129q0 77 54 131t130 54z" />
    <glyph glyph-name="oslash" unicode="&#xf8;" horiz-adv-x="1624" 
d="M166 -14l110 108q-108 70 -161.5 173t-53.5 243q0 270 192.5 407.5t571.5 137.5q112 0 202 -12.5t163 -36.5l147 149l113 -115l-107 -106q107 -68 162.5 -173t55.5 -241q0 -268 -189 -405.5t-559 -137.5q-112 0 -206.5 12t-174.5 36l-151 -150zM557 360l420 426
q-28 26 -69.5 39t-94.5 13q-137 0 -209 -85t-72 -247q0 -41 6.5 -77t18.5 -69zM645 242q38 -27 75 -39.5t81 -12.5q136 0 212.5 85.5t76.5 236.5q0 47 -6.5 85t-18.5 69z" />
    <glyph glyph-name="ugrave" unicode="&#xf9;" horiz-adv-x="1591" 
d="M1468 1030v-858q0 -56 4.5 -99.5t12.5 -72.5h-473q-9 25 -14 68t-5 100q-90 -98 -191.5 -145.5t-221.5 -47.5q-234 0 -356 119.5t-122 349.5v586h476v-571q0 -118 45 -172t143 -54q115 0 171 71.5t56 217.5v508h475zM1014 1165h-192l-474 285h398z" />
    <glyph glyph-name="uacute" unicode="&#xfa;" horiz-adv-x="1591" 
d="M1468 1030v-858q0 -56 4.5 -99.5t12.5 -72.5h-473q-9 25 -14 68t-5 100q-90 -98 -191.5 -145.5t-221.5 -47.5q-234 0 -356 119.5t-122 349.5v586h476v-571q0 -118 45 -172t143 -54q115 0 171 71.5t56 217.5v508h475zM580 1165l268 285h398l-474 -285h-192z" />
    <glyph glyph-name="ucircumflex" unicode="&#xfb;" horiz-adv-x="1591" 
d="M1468 1030v-858q0 -56 4.5 -99.5t12.5 -72.5h-473q-9 25 -14 68t-5 100q-90 -98 -191.5 -145.5t-221.5 -47.5q-234 0 -356 119.5t-122 349.5v586h476v-571q0 -118 45 -172t143 -54q115 0 171 71.5t56 217.5v508h475zM369 1165l268 285h320l268 -285h-192l-236 150
l-236 -150h-192z" />
    <glyph glyph-name="udieresis" unicode="&#xfc;" horiz-adv-x="1591" 
d="M1468 1030v-858q0 -56 4.5 -99.5t12.5 -72.5h-473q-9 25 -14 68t-5 100q-90 -98 -191.5 -145.5t-221.5 -47.5q-234 0 -356 119.5t-122 349.5v586h476v-571q0 -118 45 -172t143 -54q115 0 171 71.5t56 217.5v508h475zM873 1178v260h327v-260h-327zM394 1178v260h327v-260
h-327z" />
    <glyph glyph-name="yacute" unicode="&#xfd;" horiz-adv-x="1386" 
d="M496 -6l-535 1036h498l270 -620l260 620h438l-524 -1089q-20 -45 -53.5 -135t-67.5 -193h-471zM477 1165l268 285h398l-474 -285h-192z" />
    <glyph glyph-name="thorn" unicode="&#xfe;" horiz-adv-x="1622" 
d="M117 1475h473v-613q82 95 189 143t237 48q243 0 388.5 -140.5t145.5 -373.5q0 -256 -147.5 -411t-390.5 -155q-125 0 -231 44t-191 130v-536h-473v1864zM821 225q117 0 182.5 78t65.5 217q0 132 -65.5 209.5t-176.5 77.5q-113 0 -176 -75t-63 -212q0 -140 61 -217.5
t172 -77.5z" />
    <glyph glyph-name="ydieresis" unicode="&#xff;" horiz-adv-x="1386" 
d="M496 -6l-535 1036h498l270 -620l260 620h438l-524 -1089q-20 -45 -53.5 -135t-67.5 -193h-471zM770 1178v260h327v-260h-327zM291 1178v260h327v-260h-327z" />
    <glyph glyph-name="Cacute" unicode="&#x106;" horiz-adv-x="1888" 
d="M1268 979q-20 107 -90.5 161t-190.5 54q-192 0 -295.5 -121.5t-103.5 -345.5q0 -216 102 -332t291 -116q139 0 221.5 66.5t102.5 195.5h522q-28 -290 -242.5 -428t-640.5 -138q-411 0 -640.5 193t-229.5 539q0 379 237 584.5t676 205.5q381 0 582.5 -130.5t218.5 -387.5
h-520zM758 1611l268 285h398l-474 -285h-192z" />
    <glyph glyph-name="cacute" unicode="&#x107;" horiz-adv-x="1538" 
d="M1036 621q-12 100 -70.5 154t-154.5 54q-128 0 -196 -84.5t-68 -244.5q0 -142 65.5 -217.5t188.5 -75.5q107 0 171 56.5t64 152.5h445v-4q0 -217 -174 -326t-521 -109q-346 0 -534.5 138.5t-188.5 392.5q0 259 194.5 404t545.5 145q320 0 493.5 -112t184.5 -324h-445z
M578 1165l268 285h398l-474 -285h-192z" />
    <glyph glyph-name="Ccaron" unicode="&#x10c;" horiz-adv-x="1888" 
d="M1268 979q-20 107 -90.5 161t-190.5 54q-192 0 -295.5 -121.5t-103.5 -345.5q0 -216 102 -332t291 -116q139 0 221.5 66.5t102.5 195.5h522q-28 -290 -242.5 -428t-640.5 -138q-411 0 -640.5 193t-229.5 539q0 379 237 584.5t676 205.5q381 0 582.5 -130.5t218.5 -387.5
h-520zM547 1896h192l236 -150l236 150h192l-268 -285h-320z" />
    <glyph glyph-name="ccaron" unicode="&#x10d;" horiz-adv-x="1538" 
d="M1036 621q-12 100 -70.5 154t-154.5 54q-128 0 -196 -84.5t-68 -244.5q0 -142 65.5 -217.5t188.5 -75.5q107 0 171 56.5t64 152.5h445v-4q0 -217 -174 -326t-521 -109q-346 0 -534.5 138.5t-188.5 392.5q0 259 194.5 404t545.5 145q320 0 493.5 -112t184.5 -324h-445z
M367 1450h192l236 -150l236 150h192l-268 -285h-320z" />
    <glyph glyph-name="dcroat" unicode="&#x111;" horiz-adv-x="1636" 
d="M793 803q-110 0 -174 -79.5t-64 -215.5q0 -131 66 -209t176 -78q112 0 175.5 76t63.5 211q0 144 -62.5 219.5t-180.5 75.5zM1032 166q-85 -97 -190 -144t-238 -47q-240 0 -385 140.5t-145 373.5q0 256 148 411t392 155q123 0 225.5 -42.5t192.5 -131.5v276h-393v191h393
v127h473v-127h121v-191h-121v-1018q0 1 1 -5t1 -11q0 -28 4.5 -60.5t12.5 -62.5h-475q-9 31 -13 73t-4 93z" />
    <glyph glyph-name="Gbreve" unicode="&#x11e;" horiz-adv-x="1944" 
d="M1325 985q-26 109 -99.5 161t-201.5 52q-200 0 -317 -128.5t-117 -348.5q0 -217 123 -332t356 -115q70 0 145.5 13t159.5 39v217h-381v282h836v-745q-215 -53 -411.5 -79t-379.5 -26q-482 0 -722 182.5t-240 551.5q0 379 256 584.5t733 205.5q369 0 565 -130.5
t207 -383.5h-512zM547 1896h178q15 -63 74.5 -92t173.5 -29q115 0 175 29.5t71 91.5h178q-21 -147 -123 -216t-301 -69q-198 0 -301.5 69.5t-124.5 215.5z" />
    <glyph glyph-name="gbreve" unicode="&#x11f;" horiz-adv-x="1606" 
d="M791 815q-118 0 -183 -73.5t-65 -206.5q0 -125 65 -198t176 -73q113 0 176.5 72t63.5 201q0 133 -61 205.5t-172 72.5zM1495 117q0 -270 -188 -397.5t-586 -127.5q-313 0 -471 87t-158 260v10h485q2 -69 48.5 -102t144.5 -33q142 0 196 58t54 224v115
q-85 -91 -190.5 -135.5t-235.5 -44.5q-241 0 -387 133.5t-146 353.5q0 243 147.5 390t391.5 147q122 0 223 -38.5t180 -114.5q2 25 6.5 57t12.5 71h487q-7 -46 -10.5 -82.5t-3.5 -56.5v-774zM377 1450h178q15 -63 74.5 -92t173.5 -29q115 0 175 29.5t71 91.5h178
q-21 -147 -123 -216t-301 -69q-198 0 -301.5 69.5t-124.5 215.5z" />
    <glyph glyph-name="Idotaccent" unicode="&#x130;" horiz-adv-x="774" 
d="M135 0v1475h504v-1475h-504zM217 1615v273h340v-273h-340z" />
    <glyph glyph-name="dotlessi" unicode="&#x131;" horiz-adv-x="711" 
d="M117 0v1028h475v-1028h-475z" />
    <glyph glyph-name="Lslash" unicode="&#x141;" horiz-adv-x="1434" 
d="M1415 322v-322h-1272v489l-133 -86v281l133 90v701h502v-433l348 224v-283l-348 -227v-434h770z" />
    <glyph glyph-name="lslash" unicode="&#x142;" horiz-adv-x="748" 
d="M137 0v537l-127 -82v221l127 84v715h473v-465l127 84v-224l-127 -82v-788h-473z" />
    <glyph glyph-name="OE" unicode="&#x152;" horiz-adv-x="2779" 
d="M1374 322v829q-91 24 -176.5 36.5t-161.5 12.5q-218 0 -332 -121.5t-114 -353.5t106 -339t336 -107q80 0 166 10.5t176 32.5zM2677 1475v-324h-813v-227h751v-322h-751v-280h829v-322h-1132q-96 0 -284 -12.5t-280 -12.5q-462 0 -691.5 191.5t-229.5 576.5q0 368 240 562
t696 194q75 0 229.5 -12t233.5 -12h1202z" />
    <glyph glyph-name="oe" unicode="&#x153;" horiz-adv-x="2464" 
d="M1245 82q-102 -53 -220.5 -80t-254.5 -27q-346 0 -528.5 138.5t-182.5 400.5q0 261 196.5 406t551.5 145q145 0 263 -28.5t214 -86.5q91 58 206 86.5t255 28.5q319 0 485 -148t166 -434q0 -22 -0.5 -34t-1.5 -21h-901v-20q0 -103 57.5 -154t171.5 -51q95 0 149 35t66 104
h453q-11 -171 -189 -269t-481 -98q-151 0 -269.5 27t-205.5 80zM1919 649v15q0 85 -54.5 131.5t-156.5 46.5q-107 0 -164 -47t-57 -133v-13h432zM801 203q129 0 201.5 82.5t72.5 228.5q0 147 -72 231t-198 84q-123 0 -192.5 -83t-69.5 -230q0 -150 67 -231.5t191 -81.5z" />
    <glyph glyph-name="Scedilla" unicode="&#x15e;" horiz-adv-x="1692" 
d="M561 487v-4q-4 -28 -4 -41q0 -86 73.5 -128t227.5 -42q117 0 183.5 34.5t66.5 94.5q0 91 -263 148q-31 7 -46 10q-17 4 -49 11q-418 91 -537 198q-58 52 -87.5 123t-29.5 160q0 218 192 332t562 114q365 0 541 -107t176 -329v-17h-461v7q0 76 -70 115.5t-205 39.5
q-105 0 -162 -28t-57 -80q0 -92 302 -157q58 -12 91 -19q215 -48 306 -82.5t157 -81.5q74 -54 114 -136t40 -180q0 -225 -209 -346t-602 -121q-388 0 -561.5 116.5t-173.5 373.5v22h485zM484 -438v137q110 -22 205 -33.5t161 -11.5q57 0 86 17t29 50q0 37 -37.5 52.5
t-126.5 15.5q-11 0 -34.5 -1t-37.5 -1v213h156v-84h27q149 0 229 -50t80 -142q0 -100 -90 -154.5t-254 -54.5q-77 0 -176 11.5t-217 35.5z" />
    <glyph glyph-name="scedilla" unicode="&#x15f;" horiz-adv-x="1366" 
d="M471 358v-10q0 -76 45 -109.5t150 -33.5q82 0 126 23t44 67q0 37 -31.5 57.5t-126.5 38.5q-42 8 -123 22q-262 45 -362 105q-55 33 -85 88t-30 123q0 164 157.5 248t464.5 84q280 0 418 -83.5t139 -252.5h-427q-2 65 -40.5 92t-134.5 27q-58 0 -90.5 -20t-32.5 -56
q0 -35 35.5 -56.5t161.5 -49.5q44 -10 122 -27q213 -45 271 -72q97 -44 141 -101.5t44 -137.5q0 -172 -163.5 -260.5t-481.5 -88.5q-314 0 -459.5 91.5t-145.5 287.5v4h414zM322 -438v137q110 -22 205 -33.5t161 -11.5q57 0 86 17t29 50q0 37 -37.5 52.5t-126.5 15.5
q-11 0 -34.5 -1t-37.5 -1v213h156v-84h27q149 0 229 -50t80 -142q0 -100 -90 -154.5t-254 -54.5q-77 0 -176 11.5t-217 35.5z" />
    <glyph glyph-name="Scaron" unicode="&#x160;" horiz-adv-x="1692" 
d="M561 487v-4q-4 -28 -4 -41q0 -86 73.5 -128t227.5 -42q117 0 183.5 34.5t66.5 94.5q0 91 -263 148q-31 7 -46 10q-17 4 -49 11q-418 91 -537 198q-58 52 -87.5 123t-29.5 160q0 218 192 332t562 114q365 0 541 -107t176 -329v-17h-461v7q0 76 -70 115.5t-205 39.5
q-105 0 -162 -28t-57 -80q0 -92 302 -157q58 -12 91 -19q215 -48 306 -82.5t157 -81.5q74 -54 114 -136t40 -180q0 -225 -209 -346t-602 -121q-388 0 -561.5 116.5t-173.5 373.5v22h485zM418 1896h192l236 -150l236 150h192l-268 -285h-320z" />
    <glyph glyph-name="scaron" unicode="&#x161;" horiz-adv-x="1366" 
d="M471 358v-10q0 -76 45 -109.5t150 -33.5q82 0 126 23t44 67q0 37 -31.5 57.5t-126.5 38.5q-42 8 -123 22q-262 45 -362 105q-55 33 -85 88t-30 123q0 164 157.5 248t464.5 84q280 0 418 -83.5t139 -252.5h-427q-2 65 -40.5 92t-134.5 27q-58 0 -90.5 -20t-32.5 -56
q0 -35 35.5 -56.5t161.5 -49.5q44 -10 122 -27q213 -45 271 -72q97 -44 141 -101.5t44 -137.5q0 -172 -163.5 -260.5t-481.5 -88.5q-314 0 -459.5 91.5t-145.5 287.5v4h414zM256 1450h192l236 -150l236 150h192l-268 -285h-320z" />
    <glyph glyph-name="Ydieresis" unicode="&#x178;" horiz-adv-x="1704" 
d="M623 0v522l-727 953h624l375 -578l381 578h522l-674 -953v-522h-501zM928 1624v260h327v-260h-327zM449 1624v260h327v-260h-327z" />
    <glyph glyph-name="Zcaron" unicode="&#x17d;" horiz-adv-x="1663" 
d="M692 322h897v-322h-1470v406l831 745h-786v324h1397v-392zM403 1896h192l236 -150l236 150h192l-268 -285h-320z" />
    <glyph glyph-name="zcaron" unicode="&#x17e;" horiz-adv-x="1321" 
d="M627 754h-504v274h1087v-283l-514 -466h551v-279h-1163v260zM234 1450h192l236 -150l236 150h192l-268 -285h-320z" />
    <glyph glyph-name="florin" unicode="&#x192;" horiz-adv-x="1642" 
d="M1354 639h-301l-72 -514q-26 -186 -72 -283t-129 -143q-71 -39 -169.5 -57.5t-239.5 -18.5q-49 0 -108.5 2.5t-137.5 8.5l41 280l30 -3q55 -5 76 -5q113 0 162.5 50t69.5 189l67 494h-315l35 266h313q19 306 135.5 427.5t390.5 121.5q64 0 149.5 -6.5t188.5 -20.5
l-41 -278q-38 7 -75 10.5t-72 3.5q-101 0 -143 -53.5t-54 -204.5h310z" />
    <glyph glyph-name="circumflex" unicode="&#x2c6;" 
d="M84 1165l268 285h320l268 -285h-192l-236 150l-236 -150h-192z" />
    <glyph glyph-name="caron" unicode="&#x2c7;" 
d="M84 1450h192l236 -150l236 150h192l-268 -285h-320z" />
    <glyph glyph-name="breve" unicode="&#x2d8;" 
d="M86 1450h178q15 -63 74.5 -92t173.5 -29q115 0 175 29.5t71 91.5h178q-21 -147 -123 -216t-301 -69q-198 0 -301.5 69.5t-124.5 215.5z" />
    <glyph glyph-name="dotaccent" unicode="&#x2d9;" 
d="M342 1169v273h340v-273h-340z" />
    <glyph glyph-name="ring" unicode="&#x2da;" 
d="M838 1352q0 -97 -84 -148t-242 -51q-157 0 -241.5 51.5t-84.5 147.5t84.5 147t241.5 51q158 0 242 -51t84 -147zM649 1352q0 57 -33 83.5t-104 26.5t-104 -26.5t-33 -83.5t33 -83t104 -26t104 26t33 83z" />
    <glyph glyph-name="ogonek" unicode="&#x2db;" 
d="M668 0q-82 -52 -118 -94t-36 -84q0 -39 24 -57.5t74 -18.5h136v-174h-99q-203 0 -288 41.5t-85 136.5q0 69 61 129.5t191 120.5h140z" />
    <glyph glyph-name="tilde" unicode="&#x2dc;" 
d="M215 1178h-137q32 116 100.5 173.5t175.5 57.5q20 0 43.5 -2.5t50.5 -7.5l172 -33q18 -3 35.5 -4.5t36.5 -1.5q45 0 74.5 20t42.5 58h137q-26 -114 -101 -176t-186 -62q-22 0 -42 2t-39 6l-184 35q-15 3 -27.5 4.5t-26.5 1.5q-49 0 -81 -18t-44 -53z" />
    <glyph glyph-name="hungarumlaut" unicode="&#x2dd;" 
d="M553 1163l219 285h356l-428 -285h-147zM143 1163l176 285h338l-383 -285h-131z" />
    <glyph glyph-name="Omega" unicode="&#x3a9;" horiz-adv-x="1706" 
d="M1671 350v-350h-661v403q67 81 101 176.5t34 202.5q0 165 -80 263t-213 98t-212 -98t-79 -263q0 -107 34 -202.5t101 -176.5v-403h-661v350h371q-144 82 -215.5 209.5t-71.5 300.5q0 291 201.5 471t531.5 180t532.5 -180.5t202.5 -470.5q0 -173 -71.5 -300.5
t-215.5 -209.5h371z" />
    <glyph glyph-name="pi" unicode="&#x3c0;" horiz-adv-x="1716" 
d="M1661 846h-180l-119 -846h-418l119 846h-227l-119 -846h-418l119 846h-29q-32 0 -57.5 -37t-32.5 -96h-258q36 216 127.5 295t312.5 79h1221z" />
    <glyph glyph-name="endash" unicode="&#x2013;" 
d="M0 356v316h1024v-316h-1024z" />
    <glyph glyph-name="emdash" unicode="&#x2014;" horiz-adv-x="2048" 
d="M0 672h2048v-316h-2048v316z" />
    <glyph glyph-name="quoteleft" unicode="&#x2018;" horiz-adv-x="821" 
d="M381 1475h340l-168 -578h-479z" />
    <glyph glyph-name="quoteright" unicode="&#x2019;" horiz-adv-x="821" 
d="M451 897h-340l168 578h479z" />
    <glyph glyph-name="quotesinglbase" unicode="&#x201a;" horiz-adv-x="821" 
d="M401 -268h-340l168 575h478z" />
    <glyph glyph-name="quotedblleft" unicode="&#x201c;" horiz-adv-x="1374" 
d="M944 1475h338l-166 -578h-479zM387 1475h340l-166 -578h-479z" />
    <glyph glyph-name="quotedblright" unicode="&#x201d;" horiz-adv-x="1374" 
d="M997 897h-338l166 578h480zM442 897h-340l168 578h480z" />
    <glyph glyph-name="quotedblbase" unicode="&#x201e;" horiz-adv-x="1374" 
d="M944 -268h-340l166 575h479zM387 -268h-338l166 575h479z" />
    <glyph glyph-name="dagger" unicode="&#x2020;" horiz-adv-x="1305" 
d="M438 0v858h-368v342h368v275h426v-275h371v-342h-371v-858h-426z" />
    <glyph glyph-name="daggerdbl" unicode="&#x2021;" horiz-adv-x="1305" 
d="M856 0h-407v256h-367v328h367v307h-367v328h367v256h407v-256h367v-328h-367v-307h367v-328h-367v-256z" />
    <glyph glyph-name="bullet" unicode="&#x2022;" horiz-adv-x="1208" 
d="M307 762q0 123 87 209t210 86q122 0 208.5 -86.5t86.5 -208.5t-87.5 -209.5t-209.5 -87.5q-123 0 -209 87t-86 210z" />
    <glyph glyph-name="ellipsis" unicode="&#x2026;" horiz-adv-x="2048" 
d="M563 0h-445v348h445v-348zM1245 0h-445v348h445v-348zM1929 0h-445v348h445v-348z" />
    <glyph glyph-name="perthousand" unicode="&#x2030;" horiz-adv-x="3224" 
d="M2746 190q81 0 115.5 44.5t34.5 148.5q0 114 -34.5 163.5t-113.5 49.5q-81 0 -117 -48t-36 -157q0 -112 34 -156.5t117 -44.5zM2746 -25q-222 0 -330 103t-108 315q0 204 108 308t320 104q215 0 322.5 -104t107.5 -310t-105.5 -311t-314.5 -105zM1729 190
q80 0 114.5 44.5t34.5 148.5q0 113 -35.5 163t-113.5 50q-82 0 -118 -48t-36 -157q0 -111 34.5 -156t119.5 -45zM1747 -25q-223 0 -330.5 103t-107.5 315q0 204 108 308t320 104q214 0 322 -104t108 -310t-105.5 -311t-314.5 -105zM496 836q80 0 114.5 45t34.5 149
q0 113 -34.5 162t-112.5 49q-82 0 -118 -47.5t-36 -155.5q0 -112 34 -157t118 -45zM494 623q-223 0 -330 101.5t-107 313.5q0 205 108 308.5t320 103.5q215 0 322.5 -103t107.5 -309q0 -205 -106.5 -310t-314.5 -105zM395 -25l1153 1475h283l-1151 -1475h-285z" />
    <glyph glyph-name="guilsinglleft" unicode="&#x2039;" horiz-adv-x="721" 
d="M61 514l240 393h393l-227 -393l227 -393h-393z" />
    <glyph glyph-name="guilsinglright" unicode="&#x203a;" horiz-adv-x="721" 
d="M659 514l-241 -393h-391l227 393l-227 393h391z" />
    <glyph glyph-name="franc" unicode="&#x20a3;" horiz-adv-x="2572" 
d="M133 0v1475h1315v-324h-811v-277h749v-323h-749v-551h-504zM1624 -2v856q0 56 -4.5 99.5t-12.5 72.5h473q10 -35 14.5 -77t4.5 -89q66 100 156.5 146.5t218.5 46.5q22 0 34 -0.5t23 -2.5v-341q-32 3 -61 4.5t-54 1.5q-177 0 -248 -70t-71 -248v-399h-473z" />
    <glyph glyph-name="trademark" unicode="&#x2122;" horiz-adv-x="1706" 
d="M1044 1468l99 -266l98 266h256v-559h-182v367l-137 -367h-70l-137 367v-367h-183v559h256zM690 1468v-151h-162v-408h-202v408h-162v151h526z" />
    <glyph glyph-name="partialdiff" unicode="&#x2202;" horiz-adv-x="1139" 
d="M770 715q25 127 35 210t10 150q0 105 -26.5 159t-77.5 54q-32 0 -57 -21t-52 -71q-44 -80 -91.5 -119t-100.5 -39q-62 0 -103 37.5t-41 95.5q0 87 102.5 148t249.5 61q224 0 352 -162.5t128 -449.5q0 -348 -167.5 -569.5t-432.5 -221.5q-215 0 -338 115.5t-123 317.5
q0 204 126 340.5t308 136.5q96 0 172 -43.5t127 -128.5zM694 553q0 114 -34 172.5t-99 58.5q-90 0 -150.5 -140.5t-60.5 -354.5q0 -115 34 -172.5t101 -57.5q90 0 149.5 140t59.5 354z" />
    <glyph glyph-name="Delta" unicode="&#x2206;" horiz-adv-x="1505" 
d="M958 309l-206 705l-207 -705h413zM991 1473l518 -1473h-1515l518 1473h479z" />
    <glyph glyph-name="product" unicode="&#x220f;" horiz-adv-x="1688" 
d="M139 1473h1399v-1866h-473v1474h-453v-1474h-473v1866z" />
    <glyph glyph-name="summation" unicode="&#x2211;" horiz-adv-x="1583" 
d="M80 1473h1368v-353h-778l559 -557l-541 -600h846v-356h-1475v200l664 738l-643 629v299z" />
    <glyph glyph-name="minus" unicode="&#x2212;" horiz-adv-x="1706" 
d="M1452 750v-277h-1198v277h1198z" />
    <glyph glyph-name="fraction" unicode="&#x2215;" horiz-adv-x="342" 
d="M-342 -25l782 1475h242l-788 -1475h-236z" />
    <glyph glyph-name="periodcentered" unicode="&#x2219;" horiz-adv-x="821" 
d="M211 713q0 84 58.5 143t142.5 59q83 0 142.5 -59.5t59.5 -142.5q0 -84 -59 -142.5t-143 -58.5q-85 0 -143 58t-58 143z" />
    <glyph glyph-name="radical" unicode="&#x221a;" horiz-adv-x="1395" 
d="M1399 1737v-172h-86l-588 -1606h-143l-301 827l-156 -59l-41 154l395 139l209 -600l483 1317h228z" />
    <glyph glyph-name="infinity" unicode="&#x221e;" horiz-adv-x="1706" 
d="M975 561q40 -57 95 -86t124 -29q84 0 137 43t53 109q0 65 -48 109.5t-117 44.5q-66 0 -122.5 -44t-121.5 -147zM731 653q-41 58 -95 86.5t-124 28.5q-84 0 -136 -43t-52 -111q0 -64 47.5 -107.5t117.5 -43.5q67 0 123 44t119 146zM856 791q69 128 149 190.5t175 62.5
q143 0 244.5 -126t101.5 -312q0 -194 -90.5 -315t-233.5 -121q-88 0 -164 53t-188 201q-67 -129 -146.5 -191.5t-175.5 -62.5q-144 0 -245 126t-101 312q0 195 89.5 315.5t232.5 120.5q85 0 161 -53t191 -200z" />
    <glyph glyph-name="integral" unicode="&#x222b;" horiz-adv-x="1331" 
d="M379 -244q28 0 54 42t42 114q19 92 26 385q4 185 9 293q23 515 144 742t368 227q118 0 190 -58.5t72 -150.5q0 -69 -46 -112.5t-116 -43.5q-67 0 -101 40.5t-34 119.5q0 2 1 10.5t1 15.5q0 26 -8.5 38t-26.5 12q-103 0 -126 -661q-2 -58 -3 -88q-11 -334 -36 -484.5
t-74 -266.5q-65 -150 -166.5 -226.5t-237.5 -76.5q-118 0 -189 57t-71 152q0 72 45 114t121 42q62 0 96.5 -37.5t34.5 -104.5q0 -12 -1 -30t-1 -23q0 -20 8.5 -30.5t24.5 -10.5z" />
    <glyph glyph-name="approxequal" unicode="&#x2248;" horiz-adv-x="1706" 
d="M1530 309q-106 -69 -195.5 -101t-177.5 -32q-87 0 -280 64.5t-316 64.5q-82 0 -172.5 -37t-210.5 -121v299q115 74 213 108t197 34q119 0 308.5 -64.5t268.5 -64.5q83 0 169 34.5t196 114.5v-299zM1530 774q-106 -70 -195 -101.5t-176 -31.5q-88 0 -281 64.5t-317 64.5
q-84 0 -173 -36t-210 -120v299q116 73 214 106.5t196 33.5q119 0 308.5 -63.5t268.5 -63.5q85 0 171.5 35t193.5 114v-301z" />
    <glyph glyph-name="notequal" unicode="&#x2260;" horiz-adv-x="1706" 
d="M1384 1116l-112 -139h180v-260h-358l-172 -211h530v-262h-704l-242 -299l-199 159l113 140h-166v262h340l170 211h-510v260h690l244 301z" />
    <glyph glyph-name="lessequal" unicode="&#x2264;" horiz-adv-x="1706" 
d="M1454 236v-271h-1200v271h1200zM1452 999l-704 -208l704 -209v-281l-1198 371v237l1198 373v-283z" />
    <glyph glyph-name="greaterequal" unicode="&#x2265;" horiz-adv-x="1706" 
d="M1454 236v-271h-1200v271h1200zM1452 909v-237l-1196 -371v281l705 209l-705 208v283z" />
    <glyph glyph-name="lozenge" unicode="&#x25ca;" horiz-adv-x="1012" 
d="M506 1409l-385 -821l385 -821l385 821zM506 1653l500 -1065l-500 -1065l-500 1065z" />
    <glyph glyph-name="apple" unicode="&#xf000;" horiz-adv-x="1618" 
d="M836 1216q-1 6 -1.5 14t-0.5 23q0 124 95 229.5t236 131.5q1 -10 1.5 -23t0.5 -39q0 -131 -103.5 -234.5t-203.5 -103.5h-8q-3 0 -7.5 1t-8.5 1zM1505 403q-114 -247 -205 -342.5t-204 -95.5q-50 0 -131.5 33t-122.5 33q-45 0 -131 -33t-127 -33q-64 0 -128.5 44
t-129.5 132q-102 140 -157.5 295.5t-55.5 300.5q0 219 125 356.5t323 137.5q68 0 155 -34t124 -34q34 0 121.5 34t152.5 34q111 0 199 -39.5t160 -122.5q-102 -65 -151.5 -145.5t-49.5 -182.5q0 -113 60 -200t173 -138z" />
    <glyph glyph-name="fi" unicode="&#xf001;" horiz-adv-x="1749" 
d="M256 0v784h-231v244h231v148q0 166 108.5 244.5t335.5 78.5q60 0 132 -6.5t159 -19.5v-222q-29 1 -66.5 2.5t-43.5 1.5q-85 0 -117.5 -29t-32.5 -108v-90h260v-244h-260v-784h-475zM1159 1194v281h473v-281h-473zM1159 0v1028h473v-1028h-473z" />
    <glyph glyph-name="fl" unicode="&#xf002;" horiz-adv-x="1749" 
d="M256 0v784h-231v244h231v148q0 166 108.5 244.5t335.5 78.5q60 0 132 -6.5t159 -19.5v-222q-29 1 -66.5 2.5t-43.5 1.5q-85 0 -117.5 -29t-32.5 -108v-90h260v-244h-260v-784h-475zM1159 0v1475h473v-1475h-473z" />
    </font>
</defs>
</svg>
